<svg width="16" height="12" viewBox="0 0 16 12" fill="none" xmlns="http://www.w3.org/2000/svg">
<path d="M0 9.93183C0 10.4803 0.210714 11.0064 0.585786 11.3942C0.960859 11.7821 1.46957 11.9999 2 11.9999H14C14.5304 11.9999 15.0391 11.7821 15.4142 11.3942C15.7893 11.0064 16 10.4803 16 9.93183V4.24454H0V9.93183ZM2.35714 7.12512C2.35714 6.83128 2.47003 6.54948 2.67096 6.34171C2.87189 6.13393 3.14441 6.01721 3.42857 6.01721H5.14286C5.42702 6.01721 5.69954 6.13393 5.90047 6.34171C6.1014 6.54948 6.21429 6.83128 6.21429 7.12512V7.86373C6.21429 8.15757 6.1014 8.43937 5.90047 8.64714C5.69954 8.85492 5.42702 8.97164 5.14286 8.97164H3.42857C3.14441 8.97164 2.87189 8.85492 2.67096 8.64714C2.47003 8.43937 2.35714 8.15757 2.35714 7.86373V7.12512Z" fill="#8D191D"/>
<path d="M14 -6.10352e-05H2C1.46957 -6.10352e-05 0.960859 0.217828 0.585786 0.605673C0.210714 0.993518 0 1.51955 0 2.06804V3.02823H16V2.06804C16 1.51955 15.7893 0.993518 15.4142 0.605673C15.0391 0.217828 14.5304 -6.10352e-05 14 -6.10352e-05Z" fill="#8D191D"/>
</svg>
