<svg width="16" height="15" viewBox="0 0 16 15" fill="none" xmlns="http://www.w3.org/2000/svg">
<path d="M14.4 0.535714L13.3333 0L12.2667 0.535714L11.2 0L10.1334 0.535714L9.06669 0L8.00003 0.535714L6.93336 0L5.8667 0.535714L4.26671 0V8.5731H11.7333V13.125C11.7333 14.1606 12.8357 15 13.8667 15H14.2667C15.2977 15 16 14.1606 16 13.125V0L14.4 0.535714ZM8.55003 6.96428L8.53336 5.89285H13.85L13.8667 6.96428H8.55003ZM6.4167 4.28571L6.40003 3.21428H13.85L13.8667 4.28571H6.4167Z" fill="#666666"/>
<path d="M10.6666 13.125V9.64286H0V10.7143C0 12.4068 0.192666 13.1123 0.481998 13.6483C0.972997 14.558 1.86199 15 3.19999 15H11.7333C11.7333 15 10.6666 14.3304 10.6666 13.125Z" fill="#666666"/>
</svg>
