<svg width="16" height="16" viewBox="0 0 16 16" fill="none" xmlns="http://www.w3.org/2000/svg">
<path d="M8 0.000305176C3.58192 0.000305176 0 3.58223 0 8.00031C0 12.4115 3.58923 16.0003 8 16.0003C12.4177 16.0003 16 12.418 16 8.00031C16 3.58915 12.4112 0.000305176 8 0.000305176ZM12.1538 9.23107H7.53846C7.49766 9.23107 7.45853 9.21487 7.42968 9.18601C7.40082 9.15716 7.38462 9.11803 7.38462 9.07723V2.61569C7.38462 2.57489 7.40082 2.53576 7.42968 2.5069C7.45853 2.47805 7.49766 2.46184 7.53846 2.46184H8.46154C8.50234 2.46184 8.54147 2.47805 8.57032 2.5069C8.59918 2.53576 8.61539 2.57489 8.61539 2.61569V8.00031H12.1538C12.1946 8.00031 12.2338 8.01651 12.2626 8.04537C12.2915 8.07422 12.3077 8.11335 12.3077 8.15415V9.07723C12.3077 9.11803 12.2915 9.15716 12.2626 9.18601C12.2338 9.21487 12.1946 9.23107 12.1538 9.23107Z" fill="#8D191D"/>
</svg>
