<svg width="16" height="16" viewBox="0 0 16 16" fill="none" xmlns="http://www.w3.org/2000/svg">
<path d="M8 0C3.58192 0 0 3.58192 0 8C0 12.4112 3.58923 16 8 16C12.4177 16 16 12.4177 16 8C16 3.58885 12.4112 0 8 0ZM12.1538 9.23077H7.53846C7.49766 9.23077 7.45853 9.21456 7.42968 9.18571C7.40082 9.15686 7.38462 9.11773 7.38462 9.07692V2.61538C7.38462 2.57458 7.40082 2.53545 7.42968 2.5066C7.45853 2.47775 7.49766 2.46154 7.53846 2.46154H8.46154C8.50234 2.46154 8.54147 2.47775 8.57032 2.5066C8.59918 2.53545 8.61539 2.57458 8.61539 2.61538V8H12.1538C12.1946 8 12.2338 8.01621 12.2626 8.04506C12.2915 8.07391 12.3077 8.11304 12.3077 8.15385V9.07692C12.3077 9.11773 12.2915 9.15686 12.2626 9.18571C12.2338 9.21456 12.1946 9.23077 12.1538 9.23077Z" fill="#333333"/>
</svg>
