<svg width="21" height="21" viewBox="0 0 21 21" fill="none" xmlns="http://www.w3.org/2000/svg">
<path fill-rule="evenodd" clip-rule="evenodd" d="M0.180108 20.6862C-0.0608 20.4453 -0.0599218 20.0539 0.18207 19.8119L19.8118 0.182099C20.0538 -0.0598932 20.4453 -0.0607705 20.6862 0.180138C20.9271 0.421046 20.9262 0.812511 20.6842 1.0545L1.05447 20.6843C0.812483 20.9263 0.421017 20.9271 0.180108 20.6862Z" fill="black"/>
<path fill-rule="evenodd" clip-rule="evenodd" d="M0.18015 0.180108C-0.060758 0.421016 -0.0598799 0.812484 0.182112 1.05448L19.8119 20.6842C20.0539 20.9262 20.4453 20.9271 20.6862 20.6862C20.9272 20.4453 20.9263 20.0538 20.6843 19.8118L1.05452 0.18207C0.812525 -0.0599212 0.421059 -0.0608007 0.18015 0.180108Z" fill="black"/>
</svg>
