<svg width="16" height="10" viewBox="0 0 16 10" fill="none" xmlns="http://www.w3.org/2000/svg">
<path fill-rule="evenodd" clip-rule="evenodd" d="M1.29727 4.76196H1.56069L1.36698 5.33409C0.991606 6.44255 1.61274 7.61525 2.60553 7.85841C2.71444 9.06104 3.63615 10 4.75687 10C5.86337 10 6.77576 9.0849 6.9037 7.90424L11.6912 7.90508C11.8199 9.0849 12.7319 9.99916 13.8379 9.99916C15.032 9.99916 16 8.93339 16 7.61839C16 6.43125 15.2112 5.44709 14.1793 5.26691C14.1482 5.10536 14.0997 4.94486 14.0322 4.78603L13.1927 2.81122C13.2716 2.83885 13.3438 2.85391 13.4054 2.85391C13.8826 2.85391 14.0278 2.42807 14.0278 1.90261C14.0278 1.37715 13.8826 0.951096 13.4054 0.951096C13.3685 0.951096 13.3279 0.950737 13.2842 0.950351L13.2737 0.950258L13.2722 0.950245C13.035 0.948154 12.7143 0.945326 12.4346 0.987716L12.3172 0.667546C12.2116 0.379392 11.9577 0.190847 11.6757 0.190847H10.3108C9.92871 0.190847 9.61892 0.531944 9.61892 0.95277C9.61892 1.3736 9.92871 1.71469 10.3108 1.71469H11.2089L11.2662 1.8708C11.2709 1.88357 11.2758 1.89612 11.2811 1.90847L12.7788 5.43202C12.9668 5.87398 12.6738 6.38123 12.2306 6.38123H10.2515L9.39766 3.85753C9.27159 3.48484 8.94837 3.2377 8.58722 3.2377H7.35131V1.42863C7.35131 0.639504 6.77057 0 6.05404 0H1.29727C0.580847 0 0 0.639504 0 1.42863V3.33333C0 4.12225 0.580847 4.76196 1.29727 4.76196ZM1.38374 3.23812V1.52385H5.96758V3.23812L2.67739 3.2377L2.6517 3.23812H1.38374ZM3.93152 7.90424C4.04152 8.29096 4.36944 8.57158 4.75687 8.57158C5.14439 8.57158 5.47231 8.29096 5.5823 7.90424L5.12616 7.90508C5.11518 7.90508 5.1043 7.90487 5.09341 7.90424H3.93152ZM3.03766 4.76155L2.66356 5.86645C2.57925 6.11547 2.7464 6.38061 2.98766 6.38061H8.77456L8.22685 4.76155H6.08571L6.05404 4.76196L3.03766 4.76155ZM14.0179 6.6765C13.8062 7.15132 13.4417 7.54034 12.9808 7.74604C13.0374 8.21165 13.3996 8.57074 13.8379 8.57074C14.3156 8.57074 14.7027 8.14427 14.7027 7.61839C14.7027 7.15864 14.4072 6.77506 14.0138 6.68571L14.0179 6.6765Z" fill="#333333"/>
<path d="M1.38374 1.52385V3.23812H2.6517L2.67739 3.2377L5.96758 3.23812V1.52385H1.38374Z" fill="#333333"/>
<path d="M2.66356 5.86645L3.03766 4.76155L6.05404 4.76196L6.08571 4.76155H8.22685L8.77456 6.38061H2.98766C2.7464 6.38061 2.57925 6.11547 2.66356 5.86645Z" fill="#333333"/>
</svg>
