<svg width="30" height="27" viewBox="0 0 30 27" fill="none" xmlns="http://www.w3.org/2000/svg">
<path d="M16.3071 15.762L12.9174 21.6332H17.3815C18.0968 21.6332 18.69 21.0318 18.69 20.3184C18.69 19.6049 18.0968 19.0036 17.3815 19.0036H16.3071V15.762Z" fill="#132A3E"/>
<path d="M18.954 11.1776H21.1704C21.8509 11.182 22.4319 10.6397 22.4827 9.96263C22.5336 9.28545 22.0403 8.66173 21.3668 8.56348L20.8505 7.89272L18.954 11.1776Z" fill="#132A3E"/>
<path d="M29.975 21.0828L27.9772 15.4399V5.04627C27.9772 4.82766 27.7846 4.63414 27.567 4.63414C26.3611 4.63555 25.3615 5.64885 25.3599 6.85163V13.2933H20.272C20.0544 13.2933 19.8618 13.4869 19.8618 13.7055V21.2211C19.8618 21.4397 20.0544 21.6332 20.272 21.6332H22.0689C22.2865 21.6332 22.479 21.4397 22.479 21.2211V15.9223H25.4806L27.4051 21.3584C27.4619 21.5186 27.6221 21.6322 27.7913 21.6323H29.5883C29.8658 21.6323 30.0658 21.339 29.975 21.0828Z" fill="#132A3E"/>
<path fill-rule="evenodd" clip-rule="evenodd" d="M21.8659 0.134142C22.3442 0.410284 22.5081 1.02187 22.2319 1.50017L8.23193 25.7489C7.95579 26.2272 7.3442 26.391 6.86591 26.1149C6.38761 25.8388 6.22374 25.2272 6.49988 24.7489L8.29806 21.6341H7.92833C7.71077 21.6341 7.51818 21.4406 7.51818 21.222V15.9232H4.51658L2.59215 21.3593C2.53537 21.5195 2.37518 21.6331 2.2059 21.6332H0.40874C0.130383 21.6333 -0.0686282 21.3393 0.022261 21.0828L2.02028 15.4399V5.04627C2.02028 4.82766 2.21288 4.63414 2.43043 4.63414C3.63639 4.63555 4.63599 5.64886 4.63751 6.85163V13.2933H9.72526C9.94282 13.2933 10.1354 13.4869 10.1354 13.7055V18.4517L12.9944 13.4998L11.0478 11.1776H8.82691C8.12238 11.1776 7.51841 10.5728 7.51841 9.86275C7.51841 9.15985 8.11497 8.54794 8.82691 8.54794H9.33667L10.8277 5.71861C10.8992 5.58767 11.0415 5.50155 11.1901 5.49936H17.6135L20.4999 0.500167C20.776 0.0218743 21.3876 -0.142001 21.8659 0.134142ZM17.1376 6.32362H12.0261L13.737 8.54794H15.8534L16.2575 7.84798H14.4127C13.8865 7.84798 13.8865 7.02372 14.4127 7.02372H16.7334L17.1376 6.32362ZM11.2548 6.66957L12.7001 8.54794H10.2643L11.2548 6.66957Z" fill="#132A3E"/>
</svg>
