<svg width="16" height="16" viewBox="0 0 16 16" fill="none" xmlns="http://www.w3.org/2000/svg">
<path d="M8 0C3.5888 0 0 3.5888 0 8C0 12.4112 3.5888 16 8 16C12.4112 16 16 12.4112 16 8C16 3.5888 12.4112 0 8 0ZM8 3.28C8.20569 3.28 8.40677 3.34099 8.57779 3.45527C8.74882 3.56955 8.88212 3.73197 8.96083 3.92201C9.03955 4.11204 9.06015 4.32115 9.02002 4.52289C8.97989 4.72463 8.88084 4.90994 8.73539 5.05539C8.58994 5.20084 8.40463 5.29989 8.20289 5.34002C8.00115 5.38015 7.79204 5.35955 7.60201 5.28083C7.41197 5.20212 7.24955 5.06882 7.13527 4.89779C7.02099 4.72677 6.96 4.52569 6.96 4.32C6.96 4.04417 7.06957 3.77965 7.26461 3.58461C7.45965 3.38957 7.72417 3.28 8 3.28ZM10.56 12.32H5.76V11.04H7.52V7.52H6.24V6.24H8.8V11.04H10.56V12.32Z" fill="#666666"/>
</svg>
