<svg width="20" height="16" viewBox="0 0 20 16" fill="none" xmlns="http://www.w3.org/2000/svg">
<path d="M8.34522 2.21834C8.36331 2.23565 8.38127 2.25314 8.39909 2.27079L9.99974 3.85634L11.6004 2.27079C11.6182 2.25316 11.6363 2.23554 11.6544 2.2182C12.0539 1.83556 12.5232 1.53035 13.0379 1.31907C13.576 1.09823 14.153 0.984456 14.7359 0.984456C15.3188 0.984456 15.8958 1.09823 16.4339 1.31907C16.9719 1.53992 17.4606 1.86367 17.8715 2.27093C18.2826 2.67798 18.6083 3.16085 18.8304 3.69175C19.0525 4.22263 19.1667 4.79137 19.1667 5.36554C19.1667 5.93971 19.0525 6.50845 18.8304 7.03933C18.6083 7.57022 18.2825 8.05323 17.8714 8.46028L11.6095 14.663C10.7281 15.5361 9.27134 15.5361 8.38997 14.663L2.12813 8.46028C1.29815 7.63815 0.833333 6.52477 0.833333 5.36554C0.833333 4.2063 1.29815 3.09293 2.12813 2.27079C2.95837 1.44839 4.08609 0.984963 5.26361 0.984963C6.41584 0.984963 7.52042 1.42871 8.34522 2.21834Z" fill="#8D191D"/>
</svg>
