<svg width="20" height="17" viewBox="0 0 20 17" fill="none" xmlns="http://www.w3.org/2000/svg">
<path fill-rule="evenodd" clip-rule="evenodd" d="M12.1959 15.255L18.4577 9.05233C21.6037 5.93751 19.2884 0.151123 14.7358 0.151123C12.7249 0.151123 11.3607 1.3352 9.99965 2.68338C8.64706 1.34356 7.30662 0.15163 5.26352 0.15163C0.674504 0.15163 -1.66411 5.8769 1.54158 9.05233L7.80343 15.2551C9.00958 16.4498 10.9897 16.4498 12.1959 15.255ZM2.12804 8.46028L8.38988 14.663C9.27125 15.5361 10.7281 15.5361 11.6094 14.663L17.8713 8.46028C20.6139 5.74487 18.4222 0.984456 14.7358 0.984456C12.6371 0.984456 11.3665 2.50239 9.99965 3.85634C8.63051 2.50012 7.36504 0.984963 5.26352 0.984963C1.40832 0.984963 -0.569181 5.78853 2.12804 8.46028Z" fill="#333333"/>
</svg>
