<svg width="15" height="16" viewBox="0 0 15 16" fill="none" xmlns="http://www.w3.org/2000/svg">
<path d="M9.64286 5.33333V0H0V16H4.28571V12.8H5.35714V16H15V5.33333H9.64286ZM2.67857 13.8667H1.60714V12.8H2.67857V13.8667ZM2.67857 11.2H1.60714V10.1333H2.67857V11.2ZM2.67857 8.53333H1.60714V7.46667H2.67857V8.53333ZM2.67857 5.86667H1.60714V4.8H2.67857V5.86667ZM2.67857 3.2H1.60714V2.13333H2.67857V3.2ZM6.96429 2.13333H8.03571V3.2H6.96429V2.13333ZM5.35714 11.2H4.28571V10.1333H5.35714V11.2ZM5.35714 8.53333H4.28571V7.46667H5.35714V8.53333ZM5.35714 5.86667H4.28571V4.8H5.35714V5.86667ZM5.35714 3.2H4.28571V2.13333H5.35714V3.2ZM8.03571 13.8667H6.96429V12.8H8.03571V13.8667ZM8.03571 11.2H6.96429V10.1333H8.03571V11.2ZM8.03571 8.53333H6.96429V7.46667H8.03571V8.53333ZM8.03571 5.86667H6.96429V4.8H8.03571V5.86667ZM13.9286 14.9333H9.64286V13.8667H10.7143V12.8H9.64286V11.2H10.7143V10.1333H9.64286V8.53333H10.7143V7.46667H9.64286V6.4H13.9286V14.9333Z" fill="#8D191D"/>
</svg>
