<svg width="26" height="26" viewBox="0 0 16 16" fill="none" xmlns="http://www.w3.org/2000/svg">
<path fill-rule="evenodd" clip-rule="evenodd" d="M10.4279 0.887196C10.8222 1.23074 10.7763 1.79144 10.569 2.25749C9.52973 4.5943 11.2619 5.62281 13.0169 6.66493C13.8518 7.16066 14.6919 7.65946 15.2412 8.30365C16.6095 9.90806 15.9899 12.5057 14.4752 13.8579C12.762 15.387 10.3065 16 8.02062 16C5.73929 16 3.27398 15.3823 1.56609 13.8579C0.0300264 12.4868 -0.649356 10.0031 0.800007 8.30365C1.34262 7.66739 2.18073 7.17776 3.01629 6.68962C4.77899 5.65984 6.53036 4.63668 5.47224 2.25749C5.26497 1.79144 5.21901 1.23074 5.61333 0.887196C6.97108 -0.295733 9.07017 -0.295731 10.4279 0.887196ZM8.02067 5.75881C7.29883 7.69914 7.29883 10.8753 8.02067 12.7971C8.7425 10.8753 8.7425 7.69914 8.02067 5.75881ZM6.21607 5.75057C7.05431 6.87718 6.06626 7.99127 5.08113 9.10207C4.3696 9.90437 3.6596 10.7049 3.64036 11.5073C2.84125 10.4109 3.80399 9.31774 4.77164 8.21901C5.49249 7.40052 6.21607 6.57893 6.21607 5.75057ZM9.82526 5.75057C8.98702 6.87718 9.97507 7.99127 10.9602 9.10207C11.6717 9.90437 12.3817 10.7049 12.401 11.5073C13.2001 10.4109 12.2373 9.31774 11.2697 8.21901C10.5488 7.40052 9.82526 6.57893 9.82526 5.75057Z" fill="#8D191D"/>
</svg>
