<svg width="11" height="16" viewBox="0 0 11 16" fill="none" xmlns="http://www.w3.org/2000/svg">
<path d="M5.5 0C2.46744 0 0 2.45188 0 5.46449C0 6.89919 0.629406 8.80711 1.87069 11.1354C2.86756 13.0048 4.02084 14.6952 4.62069 15.5363C4.72205 15.68 4.85458 15.7969 5.00753 15.8774C5.16048 15.958 5.32955 16 5.50103 16C5.67251 16 5.84159 15.958 5.99454 15.8774C6.14749 15.7969 6.28002 15.68 6.38138 15.5363C6.98019 14.6952 8.1345 13.0048 9.13138 11.1354C10.3706 8.80783 11 6.8999 11 5.46449C11 2.45188 8.53256 0 5.5 0ZM5.5 8.0003C5.06488 8.0003 4.63953 7.86624 4.27775 7.61507C3.91596 7.3639 3.63398 7.00691 3.46746 6.58924C3.30095 6.17156 3.25738 5.71196 3.34227 5.26856C3.42716 4.82516 3.63669 4.41787 3.94437 4.09819C4.25204 3.77852 4.64404 3.56082 5.0708 3.47262C5.49756 3.38442 5.93991 3.42969 6.3419 3.6027C6.7439 3.7757 7.08749 4.06868 7.32923 4.44458C7.57097 4.82047 7.7 5.26241 7.7 5.7145C7.69936 6.32053 7.46737 6.90155 7.05493 7.33007C6.64249 7.7586 6.08328 7.99964 5.5 8.0003Z" fill="#666666"/>
</svg>
