<svg width="16" height="16" viewBox="0 0 16 16" fill="none" xmlns="http://www.w3.org/2000/svg">
<path d="M14.5675 13.3425C14.4499 13.3399 14.3338 13.3157 14.225 13.2711L12.1972 12.5521L12.1822 12.5461C12.1379 12.5276 12.0904 12.5184 12.0425 12.5189C11.9984 12.519 11.9546 12.527 11.9132 12.5425C11.864 12.5611 11.4201 12.7279 10.9543 12.8557C10.7019 12.925 9.82295 13.1511 9.11762 13.1511C7.31481 13.1511 5.62914 12.4582 4.37168 11.2C3.75738 10.5895 3.27028 9.8632 2.93857 9.06314C2.60687 8.26309 2.43715 7.40519 2.43924 6.5391C2.43922 6.08782 2.48783 5.63786 2.58423 5.197C2.89815 3.74633 3.72956 2.42672 4.92524 1.48282C6.15176 0.520715 7.66591 -0.00148603 9.22476 3.17637e-06C11.0893 3.17637e-06 12.8268 0.714269 14.1175 2.00637C15.3374 3.23027 16.006 4.83951 16.0006 6.53732C15.9996 7.79891 15.6229 9.03162 14.9185 10.0783L14.9117 10.0883L14.8853 10.124C14.8792 10.1322 14.8732 10.1401 14.8675 10.1483L14.8621 10.1579C14.8479 10.1821 14.835 10.207 14.8235 10.2326L15.3857 12.2304C15.4105 12.3128 15.424 12.3982 15.4257 12.4843C15.4258 12.597 15.4037 12.7087 15.3606 12.8129C15.3175 12.9171 15.2543 13.0117 15.1746 13.0914C15.0949 13.1712 15.0002 13.2344 14.896 13.2774C14.7919 13.3205 14.6802 13.3426 14.5675 13.3425Z" fill="#666666"/>
<path d="M9.56653 14.0497C9.52963 13.9779 9.47771 13.9149 9.4143 13.865C9.35089 13.8151 9.27747 13.7794 9.19904 13.7604C8.99262 13.7058 8.75191 13.7151 8.56799 13.7015C6.83137 13.5807 5.19717 12.8354 3.9674 11.6033C2.87413 10.5162 2.16361 9.10329 1.94282 7.57738C1.89282 7.22953 1.89282 7.14311 1.89282 7.14311C1.8928 7.02705 1.85744 6.91375 1.79144 6.81829C1.72545 6.72282 1.63195 6.64971 1.52338 6.60869C1.41482 6.56767 1.29634 6.56068 1.1837 6.58864C1.07106 6.61661 0.969614 6.67822 0.892849 6.76526C0.892849 6.76526 0.611429 7.07168 0.478575 7.37917C0.105972 8.23767 -0.052928 9.17372 0.0154916 10.1071C0.0839113 11.0405 0.377611 11.9433 0.871421 12.7383C0.964276 12.8929 0.964276 12.9644 0.943562 13.1251C0.846065 13.629 0.675355 14.5179 0.586429 14.979C0.556986 15.1285 0.567938 15.2831 0.618157 15.427C0.668376 15.5709 0.756046 15.6988 0.872136 15.7975L0.888564 15.8114C1.04213 15.9334 1.23244 15.9999 1.42855 16C1.53886 16.0001 1.64809 15.9784 1.74997 15.9361L3.66098 15.1986C3.72678 15.1736 3.79947 15.1736 3.86526 15.1986C4.61774 15.4786 5.40093 15.6272 6.14306 15.6272C7.06773 15.628 7.9812 15.4249 8.81834 15.0322C9.01333 14.9407 9.31832 14.8415 9.49689 14.635C9.56447 14.555 9.60708 14.4568 9.61946 14.3528C9.63184 14.2488 9.61343 14.1434 9.56653 14.0497Z" fill="#666666"/>
</svg>
