<svg width="16" height="16" viewBox="0 0 16 16" fill="none" xmlns="http://www.w3.org/2000/svg">
<path d="M15.9624 12.0764C15.776 11.8779 15.1178 11.2907 13.9077 10.5139C12.6888 9.73031 11.7898 9.24173 11.532 9.1278C11.5093 9.11772 11.4842 9.11402 11.4595 9.11711C11.4349 9.12019 11.4115 9.12994 11.392 9.1453C10.9766 9.46923 10.2773 10.0642 10.2398 10.0964C9.99766 10.3039 9.99766 10.3039 9.79944 10.2393C9.45086 10.125 8.36799 9.54995 7.4244 8.60422C6.48081 7.65849 5.87616 6.54882 5.76187 6.2006C5.69651 6.00203 5.69651 6.00203 5.90473 5.75988C5.93687 5.72238 6.53224 5.02308 6.85617 4.60807C6.87154 4.58853 6.88128 4.56517 6.88437 4.5405C6.88745 4.51583 6.88375 4.49079 6.87367 4.46807C6.75974 4.20985 6.27116 3.31126 5.48758 2.09231C4.7097 0.882643 4.12326 0.224417 3.92469 0.0379845C3.90647 0.0207888 3.88394 0.0088265 3.85949 0.00335809C3.83504 -0.00211033 3.80957 -0.00088235 3.78576 0.0069125C3.09163 0.245447 2.4219 0.549815 1.78572 0.915858C1.17157 1.27287 0.590141 1.6834 0.0481883 2.14267C0.02927 2.15875 0.0150865 2.17968 0.00715882 2.20321C-0.00076889 2.22674 -0.00214171 2.25199 0.00318751 2.27624C0.0778318 2.6241 0.434624 4.07628 1.54179 6.08774C2.67145 8.14064 3.45432 9.19244 5.11328 10.8457C6.77224 12.4989 7.85726 13.329 9.9123 14.4586C11.9238 15.5658 13.3767 15.9229 13.7238 15.9969C13.7481 16.0021 13.7734 16.0007 13.797 15.9928C13.8205 15.9849 13.8415 15.9707 13.8577 15.9519C14.3169 15.4099 14.7273 14.8285 15.0842 14.2143C15.4502 13.5781 15.7545 12.9084 15.9931 12.2143C16.0008 12.1907 16.0019 12.1654 15.9965 12.1412C15.9911 12.1169 15.9794 12.0946 15.9624 12.0764Z" fill="#478641"/>
</svg>
