<svg width="103" height="103" viewBox="0 0 103 103" fill="none" xmlns="http://www.w3.org/2000/svg">
<g opacity="0.5">
<path d="M29.3089 1.2561C29.3089 0.562374 28.7466 0 28.0528 0H12.561C5.62374 0 0 5.62374 0 12.561V28.0528C0 28.7466 0.562374 29.3089 1.2561 29.3089C1.94982 29.3089 2.5122 28.7466 2.5122 28.0528V12.561C2.5122 7.01119 7.01119 2.5122 12.561 2.5122H28.0528C28.7466 2.5122 29.3089 1.94982 29.3089 1.2561Z" fill="#8D191D"/>
<path d="M73.6911 1.2561C73.6911 0.562374 74.2534 0 74.9472 0H90.439C97.3763 0 103 5.62374 103 12.561V28.0528C103 28.7466 102.438 29.3089 101.744 29.3089C101.05 29.3089 100.488 28.7466 100.488 28.0528V12.561C100.488 7.01119 95.9888 2.5122 90.439 2.5122H74.9472C74.2534 2.5122 73.6911 1.94982 73.6911 1.2561Z" fill="#8D191D"/>
<path d="M29.3089 101.744C29.3089 102.438 28.7466 103 28.0528 103H12.561C5.62374 103 0 97.3763 0 90.439V74.9472C0 74.2534 0.562374 73.6911 1.2561 73.6911C1.94982 73.6911 2.5122 74.2534 2.5122 74.9472V90.439C2.5122 95.9888 7.01119 100.488 12.561 100.488H28.0528C28.7466 100.488 29.3089 101.05 29.3089 101.744Z" fill="#8D191D"/>
<path d="M73.6911 101.744C73.6911 102.438 74.2534 103 74.9472 103H90.439C97.3763 103 103 97.3763 103 90.439V74.9472C103 74.2534 102.438 73.6911 101.744 73.6911C101.05 73.6911 100.488 74.2534 100.488 74.9472V90.439C100.488 95.9888 95.9888 100.488 90.439 100.488H74.9472C74.2534 100.488 73.6911 101.05 73.6911 101.744Z" fill="#8D191D"/>
</g>
</svg>
