<svg width="16" height="16" viewBox="0 0 16 16" fill="none" xmlns="http://www.w3.org/2000/svg">
<path d="M15.7058 15.7058C16.0981 15.3135 16.0981 14.6774 15.7058 14.2851L11.5197 10.0982C12.3087 9.01389 12.7332 7.70703 12.7319 6.36596C12.7319 2.85584 9.87608 0 6.36596 0C2.85584 0 0 2.85584 0 6.36596C0 9.87608 2.85584 12.7319 6.36596 12.7319C7.70703 12.7332 9.01389 12.3087 10.0982 11.5197L14.2851 15.7058C14.6774 16.0981 15.3135 16.0981 15.7058 15.7058ZM6.36596 10.7213C5.50444 10.7214 4.66224 10.466 3.94587 9.98743C3.2295 9.50884 2.67115 8.82857 2.34142 8.03263C2.0117 7.2367 1.9254 6.36087 2.09346 5.51589C2.26152 4.67092 2.67637 3.89475 3.28556 3.28556C3.89475 2.67637 4.67092 2.26152 5.51589 2.09346C6.36087 1.9254 7.2367 2.0117 8.03263 2.34142C8.82857 2.67115 9.50884 3.2295 9.98743 3.94587C10.466 4.66224 10.7214 5.50444 10.7213 6.36596C10.72 7.52067 10.2607 8.62769 9.44419 9.44419C8.62769 10.2607 7.52067 10.72 6.36596 10.7213Z" fill="#666666"/>
</svg>
