<svg width="29" height="28" viewBox="0 0 29 28" fill="none" xmlns="http://www.w3.org/2000/svg">
<path fill-rule="evenodd" clip-rule="evenodd" d="M10.1214 1.23894C5.21361 1.23894 1.23932 5.1997 1.23932 10.0803C1.23932 14.961 5.21361 18.9217 10.1214 18.9217C15.0291 18.9217 19.0034 14.961 19.0034 10.0803C19.0034 5.1997 15.0291 1.23894 10.1214 1.23894ZM0 10.0803C0 4.51078 4.53384 0 10.1214 0C15.7089 0 20.2428 4.51078 20.2428 10.0803C20.2428 12.4168 19.4448 14.567 18.1059 16.276L28.8176 26.9416C29.0601 27.1831 29.0609 27.5753 28.8194 27.8177C28.5779 28.0601 28.1855 28.0609 27.9431 27.8194L17.2821 17.2044C15.4499 19.031 12.9176 20.1607 10.1214 20.1607C4.53384 20.1607 0 15.6499 0 10.0803Z" fill="black"/>
</svg>
