<svg width="16" height="14" viewBox="0 0 16 14" fill="none" xmlns="http://www.w3.org/2000/svg">
<path d="M11.9967 0.79713C12.1458 0.541991 12.0591 0.216732 11.8029 0.0706435C11.5468 -0.0754452 11.2183 0.0129573 11.0692 0.268096L3.50951 13.2032C3.3604 13.4584 3.44716 13.7836 3.70329 13.9297C3.95943 14.0758 4.28794 13.9874 4.43705 13.7323L11.9967 0.79713Z" fill="#8D191D"/>
<path d="M5.9689 2.40568H9.45443L9.20062 2.84721H6.41477L7.32725 4.03874H8.51571L6.96658 6.73372L5.89302 5.44737H4.70854C4.6169 5.44737 4.52615 5.42915 4.44148 5.39376C4.35681 5.35836 4.27988 5.30648 4.21508 5.24108C4.15027 5.17568 4.09887 5.09804 4.0638 5.01258C4.02873 4.92713 4.01068 4.83555 4.01068 4.74305C4.01068 4.65056 4.02873 4.55897 4.0638 4.47352C4.09887 4.38807 4.15027 4.31043 4.21508 4.24503C4.27988 4.17963 4.35681 4.12775 4.44148 4.09235C4.52615 4.05695 4.6169 4.03874 4.70854 4.03874H4.98041L5.77565 2.52312C5.7947 2.48805 5.82262 2.45871 5.85657 2.43807C5.89051 2.41744 5.92927 2.40626 5.9689 2.40568Z" fill="#8D191D"/>
<path d="M7.6876 3.22225H8.98505L8.73124 3.66378H7.6876C7.62959 3.66378 7.57395 3.64052 7.53293 3.59912C7.4919 3.55772 7.46886 3.50157 7.46886 3.44301C7.46886 3.38446 7.4919 3.32831 7.53293 3.28691C7.57395 3.2455 7.62959 3.22225 7.6876 3.22225Z" fill="#8D191D"/>
<path d="M4.48621 11.0487L5.40641 9.4479V6.80152C5.40641 6.74297 5.38336 6.68681 5.34234 6.64541C5.30131 6.60401 5.24568 6.58075 5.18766 6.58075H2.4742V3.13006C2.4738 2.81512 2.34965 2.5132 2.12899 2.29051C1.90832 2.06783 1.60915 1.94256 1.29709 1.9422C1.23908 1.9422 1.18344 1.96546 1.14241 2.00686C1.10139 2.04826 1.07834 2.10442 1.07834 2.16297V7.73064L0.012734 10.7534C0.000980473 10.7867 -0.00267095 10.8224 0.00208713 10.8574C0.00684521 10.8925 0.0198735 10.9259 0.0400755 10.9547C0.0602774 10.9836 0.0870617 11.0072 0.118174 11.0235C0.149286 11.0398 0.183816 11.0482 0.218856 11.0482H1.17734C1.22248 11.0482 1.26651 11.0341 1.30339 11.0078C1.34027 10.9816 1.3682 10.9444 1.38334 10.9015L2.4097 7.98951H4.01055V10.828C4.01055 10.8865 4.0336 10.9427 4.07462 10.9841C4.11564 11.0255 4.17128 11.0487 4.2293 11.0487H4.48621Z" fill="#8D191D"/>
<path d="M8.69799 8.00707L6.94986 11.0482H9.27098C9.45606 11.0482 9.63357 10.974 9.76444 10.8419C9.89532 10.7098 9.96884 10.5307 9.96884 10.3439C9.96884 10.1571 9.89532 9.97796 9.76444 9.84588C9.63357 9.71379 9.45606 9.63959 9.27098 9.63959H8.69799V8.00707Z" fill="#8D191D"/>
<path d="M11.2917 5.44737H10.1694L11.1552 3.73228L11.3964 4.04706C11.5713 4.07268 11.7299 4.1643 11.8404 4.30341C11.9509 4.44253 12.0049 4.61878 11.9916 4.79656C11.9783 4.97434 11.8987 5.1404 11.7688 5.2612C11.6389 5.382 11.4683 5.44854 11.2917 5.44737Z" fill="#8D191D"/>
<path d="M15.9875 10.7534L14.922 7.73064V2.16297C14.922 2.10442 14.899 2.04826 14.8579 2.00686C14.8169 1.96546 14.7613 1.9422 14.7033 1.9422C14.3912 1.94256 14.092 2.06783 13.8714 2.29051C13.6507 2.5132 13.5265 2.81512 13.5261 3.13006V6.58075H10.8126C10.7545 6.58075 10.6989 6.60401 10.6579 6.64541C10.6169 6.68681 10.5938 6.74297 10.5938 6.80152V10.8275C10.5938 10.886 10.6169 10.9422 10.6579 10.9836C10.6989 11.025 10.7545 11.0482 10.8126 11.0482H11.7709C11.8289 11.0482 11.8846 11.025 11.9256 10.9836C11.9666 10.9422 11.9897 10.886 11.9897 10.8275V7.98901H13.5905L14.6169 10.901C14.632 10.9439 14.66 10.9811 14.6968 11.0073C14.7337 11.0336 14.7777 11.0477 14.8229 11.0477H15.7812C15.8163 11.0477 15.8508 11.0393 15.8819 11.023C15.913 11.0067 15.9398 10.9831 15.96 10.9542C15.9802 10.9253 15.9933 10.892 15.998 10.8569C16.0028 10.8219 15.9992 10.7867 15.9875 10.7534Z" fill="#8D191D"/>
</svg>
