<svg width="21" height="21" viewBox="0 0 21 21" fill="none" xmlns="http://www.w3.org/2000/svg">
<path fill-rule="evenodd" clip-rule="evenodd" d="M10.5 0C11.1213 0 11.625 0.503679 11.625 1.125V3C11.625 3.62132 11.1213 4.125 10.5 4.125C9.87868 4.125 9.375 3.62132 9.375 3V1.125C9.375 0.503679 9.87868 0 10.5 0Z" fill="black"/>
<path fill-rule="evenodd" clip-rule="evenodd" d="M10.5 16.874C11.1213 16.874 11.625 17.3777 11.625 17.999V19.874C11.625 20.4953 11.1213 20.999 10.5 20.999C9.87868 20.999 9.375 20.4953 9.375 19.874V17.999C9.375 17.3777 9.87868 16.874 10.5 16.874Z" fill="black"/>
<path fill-rule="evenodd" clip-rule="evenodd" d="M6.33323 4.26373C7.56659 3.43962 9.01664 2.99976 10.5 2.99976C12.4891 2.99976 14.3968 3.78993 15.8033 5.19645C17.2098 6.60298 18 8.51063 18 10.4998C18 11.9831 17.5601 13.4332 16.736 14.6665C15.9119 15.8999 14.7406 16.8612 13.3701 17.4288C11.9997 17.9965 10.4917 18.145 9.03682 17.8556C7.58197 17.5663 6.24559 16.8519 5.1967 15.8031C4.14781 14.7542 3.4335 13.4178 3.14411 11.9629C2.85472 10.5081 3.00325 9.00007 3.57091 7.62963C4.13856 6.25918 5.09986 5.08784 6.33323 4.26373ZM10.5 4.49976C9.31331 4.49976 8.15327 4.85165 7.16658 5.51094C6.17989 6.17023 5.41085 7.1073 4.95673 8.20365C4.5026 9.30001 4.38378 10.5064 4.61529 11.6703C4.8468 12.8342 5.41825 13.9033 6.25736 14.7424C7.09648 15.5815 8.16557 16.153 9.32946 16.3845C10.4933 16.616 11.6997 16.4972 12.7961 16.043C13.8925 15.5889 14.8295 14.8199 15.4888 13.8332C16.1481 12.8465 16.5 11.6864 16.5 10.4998C16.5 8.90845 15.8679 7.38233 14.7426 6.25711C13.6174 5.1319 12.0913 4.49976 10.5 4.49976Z" fill="black"/>
<path fill-rule="evenodd" clip-rule="evenodd" d="M16.875 10.4983C16.875 9.87697 17.3787 9.37329 18 9.37329H19.875C20.4963 9.37329 21 9.87697 21 10.4983C21 11.1196 20.4963 11.6233 19.875 11.6233H18C17.3787 11.6233 16.875 11.1196 16.875 10.4983Z" fill="black"/>
<path fill-rule="evenodd" clip-rule="evenodd" d="M0 10.4983C0 9.87697 0.503679 9.37329 1.125 9.37329H3C3.62132 9.37329 4.125 9.87697 4.125 10.4983C4.125 11.1196 3.62132 11.6233 3 11.6233H1.125C0.503679 11.6233 0 11.1196 0 10.4983Z" fill="black"/>
</svg>
