<svg width="28" height="30" viewBox="0 0 28 30" fill="none" xmlns="http://www.w3.org/2000/svg">
<path fill-rule="evenodd" clip-rule="evenodd" d="M27.8251 7.76185C27.8251 11.274 25.4923 14.2413 22.2917 15.1988L21.0896 18.9386C20.9749 19.295 20.6429 19.5371 20.2686 19.5371H7.29796L7.66352 21.7793H20.3546C20.8309 21.7793 21.2169 22.1654 21.2169 22.6417C21.2169 23.118 20.8312 23.5041 20.3546 23.5041H6.9302C6.50735 23.5041 6.14717 23.198 6.07895 22.7803L3.59073 7.51819L0.88949 7.04847C0.420391 6.96681 0.105877 6.52041 0.187817 6.05097C0.269469 5.58187 0.714722 5.26765 1.18531 5.3493L4.49111 5.92423C4.85303 5.98719 5.13531 6.27232 5.19452 6.6351L5.83577 10.5684H12.8251C12.4874 9.698 12.3022 8.75156 12.3022 7.76185C12.3022 3.4753 15.7771 0.000366211 20.0636 0.000366211C24.3502 0.000366211 27.8251 3.4753 27.8251 7.76185ZM19.6399 17.8123L20.3776 15.5171C20.2735 15.5213 20.1688 15.5233 20.0636 15.5233C17.4684 15.5233 15.1707 14.2496 13.7615 12.2931H6.11696L7.01677 17.8123H19.6399ZM20.0636 14.0681C23.5465 14.0681 26.3699 11.2447 26.3699 7.76185C26.3699 4.27903 23.5465 1.45565 20.0636 1.45565C16.5808 1.45565 13.7574 4.27903 13.7574 7.76185C13.7574 11.2447 16.5808 14.0681 20.0636 14.0681Z" fill="#999999"/>
<path fill-rule="evenodd" clip-rule="evenodd" d="M5.3492 27.1833C5.3492 25.6298 6.61284 24.3662 8.16629 24.3662C9.71974 24.3662 10.9834 25.6302 10.9834 27.1833C10.9834 28.7364 9.71974 30.0004 8.16629 30.0004C6.61289 30.0004 5.3492 28.7367 5.3492 27.1833ZM7.07395 27.1836C7.07395 27.7861 7.56405 28.2759 8.16629 28.2759C8.76883 28.2759 9.25864 27.7861 9.25864 27.1836C9.25864 26.581 8.76883 26.0912 8.16629 26.0912C7.56405 26.0912 7.07395 26.581 7.07395 27.1836Z" fill="#999999"/>
<path fill-rule="evenodd" clip-rule="evenodd" d="M15.5827 27.1833C15.5827 25.6299 16.8464 24.3662 18.4001 24.3662C19.9533 24.3662 21.2172 25.6299 21.2172 27.1833C21.2172 28.7367 19.9533 30.0004 18.4001 30.0004C16.8464 30.0004 15.5827 28.7367 15.5827 27.1833ZM17.3075 27.1833C17.3075 27.7855 17.7976 28.2756 18.4001 28.2756C19.0027 28.2756 19.4925 27.7858 19.4925 27.1833C19.4925 26.5807 19.0024 26.0912 18.4001 26.0912C17.7976 26.0912 17.3075 26.581 17.3075 27.1833Z" fill="#999999"/>
<path fill-rule="evenodd" clip-rule="evenodd" d="M26.3699 7.76185C26.3699 11.2447 23.5465 14.0681 20.0636 14.0681C16.5808 14.0681 13.7574 11.2447 13.7574 7.76185C13.7574 4.27903 16.5808 1.45565 20.0636 1.45565C23.5465 1.45565 26.3699 4.27903 26.3699 7.76185ZM21.6255 5.28128C21.8792 5.02757 22.2905 5.02757 22.5443 5.28128C22.798 5.53499 22.798 5.94634 22.5443 6.20005L20.9824 7.76189L22.5443 9.32372C22.798 9.57743 22.798 9.98878 22.5443 10.2425C22.2905 10.4962 21.8792 10.4962 21.6255 10.2425L20.0636 8.68065L18.5018 10.2425C18.2481 10.4962 17.8368 10.4962 17.583 10.2425C17.3293 9.98878 17.3293 9.57743 17.583 9.32372L19.1449 7.76189L17.583 6.20005C17.3293 5.94634 17.3293 5.53499 17.583 5.28128C17.8368 5.02757 18.2481 5.02757 18.5018 5.28128L20.0636 6.84312L21.6255 5.28128Z" fill="#999999"/>
</svg>
