<svg width="26" height="16" viewBox="0 0 26 16" fill="none" xmlns="http://www.w3.org/2000/svg">
<path fill-rule="evenodd" clip-rule="evenodd" d="M2.10807 7.61914H2.53612L2.22133 8.53454C1.61136 10.3081 2.62071 12.1844 4.23398 12.5735C4.41097 14.4977 5.90874 16 7.72991 16C9.52797 16 11.0106 14.5358 11.2185 12.6468L18.9983 12.6481C19.2073 14.5358 20.6893 15.9987 22.4866 15.9987C24.427 15.9987 26 14.2934 26 12.1894C26 10.29 24.7182 8.71534 23.0414 8.42706C22.9907 8.16858 22.9121 7.91178 22.8023 7.65765L21.4382 4.49796C21.5664 4.54216 21.6837 4.56626 21.7837 4.56626C22.5592 4.56626 22.7951 3.88491 22.7951 3.04418C22.7951 2.20344 22.5592 1.52175 21.7837 1.52175C21.7238 1.52175 21.6578 1.52118 21.5868 1.52056L21.5698 1.52041L21.5673 1.52039C21.1819 1.51705 20.6608 1.51252 20.2063 1.58035L20.0154 1.06807C19.8439 0.607027 19.4313 0.305355 18.9729 0.305355H16.7551C16.1341 0.305355 15.6307 0.85111 15.6307 1.52443C15.6307 2.19775 16.1341 2.74351 16.7551 2.74351H18.2145L18.3075 2.99328C18.3152 3.01371 18.3231 3.0338 18.3317 3.05355L20.7656 8.69123C21.071 9.39837 20.595 10.21 19.8748 10.21H16.6587L15.2712 6.17205C15.0663 5.57574 14.5411 5.18032 13.9542 5.18032H11.9459V2.28581C11.9459 1.02321 11.0022 0 9.83782 0H2.10807C0.943876 0 0 1.02321 0 2.28581V5.33333C0 6.5956 0.943876 7.61914 2.10807 7.61914ZM2.24858 5.18099V2.43815H9.69731V5.18099L4.35075 5.18032L4.30901 5.18099H2.24858ZM6.38873 12.6468C6.56747 13.2655 7.10034 13.7145 7.72991 13.7145C8.35964 13.7145 8.89251 13.2655 9.07125 12.6468L8.33 12.6481C8.31216 12.6481 8.29448 12.6478 8.2768 12.6468H6.38873ZM4.93619 7.61847L4.32829 9.38632C4.19129 9.78475 4.4629 10.209 4.85495 10.209H14.2587L13.3686 7.61847H9.88927L9.83782 7.61914L4.93619 7.61847ZM22.779 10.6824C22.4351 11.4421 21.8428 12.0645 21.0938 12.3937C21.1858 13.1386 21.7743 13.7132 22.4866 13.7132C23.2628 13.7132 23.8919 13.0308 23.8919 12.1894C23.8919 11.4538 23.4116 10.8401 22.7725 10.6971L22.779 10.6824Z" fill="white"/>
</svg>
