<svg width="29" height="19" viewBox="0 0 29 19" fill="none" xmlns="http://www.w3.org/2000/svg">
<path fill-rule="evenodd" clip-rule="evenodd" d="M0 0.616883C0 0.276188 0.27743 0 0.619658 0H28.3803C28.7226 0 29 0.276188 29 0.616883C29 0.957578 28.7226 1.23377 28.3803 1.23377H0.619658C0.27743 1.23377 0 0.957578 0 0.616883ZM0 9.5C0 9.15931 0.27743 8.88312 0.619658 8.88312H17.2761C17.6183 8.88312 17.8957 9.15931 17.8957 9.5C17.8957 9.84069 17.6183 10.1169 17.2761 10.1169H0.619658C0.27743 10.1169 0 9.84069 0 9.5ZM0 18.3831C0 18.0424 0.27743 17.7662 0.619658 17.7662H28.3803C28.7226 17.7662 29 18.0424 29 18.3831C29 18.7238 28.7226 19 28.3803 19H0.619658C0.27743 19 0 18.7238 0 18.3831Z" fill="black"/>
</svg>
