<svg width="16" height="16" viewBox="0 0 16 16" fill="none" xmlns="http://www.w3.org/2000/svg">
<path d="M15.9624 12.0768C15.776 11.8782 15.1178 11.2911 13.9077 10.5143C12.6888 9.73068 11.7898 9.2421 11.532 9.12817C11.5093 9.11809 11.4842 9.11439 11.4595 9.11747C11.4349 9.12056 11.4115 9.1303 11.392 9.14567C10.9766 9.4696 10.2773 10.0646 10.2398 10.0968C9.99766 10.3043 9.99766 10.3043 9.79944 10.2396C9.45086 10.1253 8.36799 9.55032 7.4244 8.60459C6.48081 7.65885 5.87616 6.54919 5.76187 6.20097C5.69651 6.00239 5.69651 6.00239 5.90473 5.76025C5.93687 5.72274 6.53224 5.02345 6.85617 4.60844C6.87154 4.58889 6.88128 4.56553 6.88437 4.54087C6.88745 4.5162 6.88375 4.49116 6.87367 4.46843C6.75974 4.21022 6.27116 3.31163 5.48758 2.09268C4.7097 0.88301 4.12326 0.224783 3.92469 0.0383507C3.90647 0.021155 3.88394 0.00919271 3.85949 0.0037243C3.83504 -0.00174412 3.80957 -0.000516139 3.78576 0.00727871C3.09163 0.245814 2.4219 0.550181 1.78572 0.916225C1.17157 1.27324 0.590141 1.68377 0.0481883 2.14303C0.02927 2.15912 0.0150865 2.18005 0.00715882 2.20358C-0.00076889 2.22711 -0.00214171 2.25236 0.00318751 2.27661C0.0778318 2.62447 0.434624 4.07664 1.54179 6.08811C2.67145 8.14101 3.45432 9.19281 5.11328 10.8461C6.77224 12.4993 7.85726 13.3293 9.9123 14.459C11.9238 15.5661 13.3767 15.9233 13.7238 15.9972C13.7481 16.0025 13.7734 16.0011 13.797 15.9932C13.8205 15.9853 13.8415 15.9711 13.8577 15.9522C14.3169 15.4103 14.7273 14.8289 15.0842 14.2147C15.4502 13.5785 15.7545 12.9088 15.9931 12.2147C16.0008 12.191 16.0019 12.1658 15.9965 12.1415C15.9911 12.1173 15.9794 12.0949 15.9624 12.0768Z" fill="#8D191D"/>
</svg>
