<svg width="15" height="16" viewBox="0 0 15 16" fill="none" xmlns="http://www.w3.org/2000/svg">
<path d="M10.2633 1.16363C9.56168 0.413233 8.58166 0 7.49996 0C6.41249 0 5.42922 0.410733 4.73081 1.15648C4.02482 1.91045 3.68083 2.93514 3.7616 4.04162C3.92169 6.22457 5.59869 8.00037 7.49996 8.00037C9.40123 8.00037 11.0753 6.22493 11.238 4.04233C11.3198 2.94585 10.9737 1.9233 10.2633 1.16363Z" fill="#666666"/>
<path d="M13.846 15.9999H1.15402C0.987895 16.002 0.823376 15.9675 0.672434 15.8987C0.521493 15.8299 0.387925 15.7287 0.281448 15.6024C0.0470799 15.3249 -0.0473886 14.9459 0.0225614 14.5627C0.32688 12.8905 1.27661 11.4858 2.76936 10.4997C4.09553 9.62426 5.77541 9.14245 7.5 9.14245C9.22459 9.14245 10.9045 9.62461 12.2306 10.4997C13.7234 11.4854 14.6731 12.8901 14.9774 14.5623C15.0474 14.9456 14.9529 15.3245 14.7186 15.602C14.6121 15.7284 14.4786 15.8297 14.3276 15.8986C14.1767 15.9674 14.0121 16.002 13.846 15.9999Z" fill="#666666"/>
</svg>
