<svg width="16" height="16" viewBox="0 0 16 16" fill="none" xmlns="http://www.w3.org/2000/svg">
<path d="M13.4285 10.8573H11.1428C10.985 10.8573 10.8571 10.9852 10.8571 11.143V13.4289C10.8571 13.5867 10.985 13.7146 11.1428 13.7146H13.4285C13.5863 13.7146 13.7143 13.5867 13.7143 13.4289V11.143C13.7143 10.9852 13.5863 10.8573 13.4285 10.8573Z" fill="#666666"/>
<path d="M10.5714 8.57121H8.85711C8.69932 8.57121 8.5714 8.69914 8.5714 8.85695V10.5714C8.5714 10.7292 8.69932 10.8571 8.85711 10.8571H10.5714C10.7292 10.8571 10.8571 10.7292 10.8571 10.5714V8.85695C10.8571 8.69914 10.7292 8.57121 10.5714 8.57121Z" fill="#666666"/>
<path d="M15.7143 13.7141H14C13.8422 13.7141 13.7143 13.842 13.7143 13.9998V15.7143C13.7143 15.8721 13.8422 16 14 16H15.7143C15.8721 16 16 15.8721 16 15.7143V13.9998C16 13.842 15.8721 13.7141 15.7143 13.7141Z" fill="#666666"/>
<path d="M13.4285 2.28528H11.1428C10.985 2.28528 10.8571 2.41321 10.8571 2.57102V4.85691C10.8571 5.01472 10.985 5.14264 11.1428 5.14264H13.4285C13.5863 5.14264 13.7143 5.01472 13.7143 4.85691V2.57102C13.7143 2.41321 13.5863 2.28528 13.4285 2.28528Z" fill="#666666"/>
<path fill-rule="evenodd" clip-rule="evenodd" d="M8.57139 1.14295C8.57139 0.511714 9.08307 0 9.71425 0H14.8571C15.4883 0 16 0.511714 16 1.14295V6.2862C16 6.91744 15.4883 7.42915 14.8571 7.42915H9.71425C9.08307 7.42915 8.57139 6.91744 8.57139 6.2862V1.14295ZM14.8571 1.14295H9.71425V6.2862H14.8571V1.14295Z" fill="#666666"/>
<path d="M4.85714 2.28528H2.57142C2.41363 2.28528 2.28571 2.41321 2.28571 2.57102V4.85691C2.28571 5.01472 2.41363 5.14264 2.57142 5.14264H4.85714C5.01494 5.14264 5.14286 5.01472 5.14286 4.85691V2.57102C5.14286 2.41321 5.01494 2.28528 4.85714 2.28528Z" fill="#666666"/>
<path fill-rule="evenodd" clip-rule="evenodd" d="M0 1.14295C0 0.511714 0.511676 0 1.14286 0H6.28573C6.91692 0 7.42859 0.511714 7.42859 1.14295V6.2862C7.42859 6.91744 6.91692 7.42915 6.28573 7.42915H1.14286C0.511676 7.42915 0 6.91744 0 6.2862V1.14295ZM6.28573 1.14295H1.14286V6.2862H6.28573V1.14295Z" fill="#666666"/>
<path d="M4.85714 10.8573H2.57142C2.41363 10.8573 2.28571 10.9852 2.28571 11.143V13.4289C2.28571 13.5867 2.41363 13.7146 2.57142 13.7146H4.85714C5.01494 13.7146 5.14286 13.5867 5.14286 13.4289V11.143C5.14286 10.9852 5.01494 10.8573 4.85714 10.8573Z" fill="#666666"/>
<path fill-rule="evenodd" clip-rule="evenodd" d="M0 9.71346C0 9.08223 0.511676 8.57051 1.14286 8.57051H6.28573C6.91692 8.57051 7.42859 9.08223 7.42859 9.71346V14.8567C7.42859 15.4879 6.91692 15.9997 6.28573 15.9997H1.14286C0.511676 15.9997 0 15.4879 0 14.8567V9.71346ZM6.28573 9.71346H1.14286V14.8567H6.28573V9.71346Z" fill="#666666"/>
<path d="M10.5713 13.7141H8.857C8.69921 13.7141 8.57129 13.842 8.57129 13.9998V15.7143C8.57129 15.8721 8.69921 16 8.857 16H10.5713C10.7291 16 10.857 15.8721 10.857 15.7143V13.9998C10.857 13.842 10.7291 13.7141 10.5713 13.7141Z" fill="#666666"/>
<path d="M15.7144 8.57121H14.0001C13.8423 8.57121 13.7144 8.69914 13.7144 8.85695V10.5714C13.7144 10.7292 13.8423 10.8571 14.0001 10.8571H15.7144C15.8722 10.8571 16.0001 10.7292 16.0001 10.5714V8.85695C16.0001 8.69914 15.8722 8.57121 15.7144 8.57121Z" fill="#666666"/>
</svg>
