<svg width="12" height="11" viewBox="0 0 12 11" fill="none" xmlns="http://www.w3.org/2000/svg">
<path fill-rule="evenodd" clip-rule="evenodd" d="M0 0.8461C0 0.378812 0.358172 0 0.8 0H11.2C11.6418 0 12 0.378811 12 0.8461V2.11525C12 2.58254 11.6418 2.96135 11.2 2.96135H10.7605L10.0804 9.87919C10.0461 10.188 9.90569 10.4727 9.68601 10.6793C9.46633 10.8859 9.18259 11 8.88861 11H3.11135C2.81739 11 2.53365 10.8859 2.31397 10.6793C2.09429 10.4727 1.95396 10.188 1.9196 9.87918L1.91897 9.87351L1.23924 2.96135H0.8C0.358172 2.96135 0 2.58254 0 2.11525V0.8461ZM2.04356 2.96135L2.71439 9.78264C2.72629 9.88466 2.77291 9.97864 2.84558 10.047C2.9188 10.1159 3.01338 10.1539 3.11137 10.1539H8.88861C8.9866 10.1539 9.08117 10.1159 9.1544 10.047C9.22707 9.97864 9.27369 9.88465 9.28559 9.78263L9.95619 2.96135H2.04356ZM11.2 0.8461L0.8 0.8461V2.11525H11.2V0.8461ZM4.31714 4.77671C4.47335 4.6115 4.72662 4.6115 4.88283 4.77671L5.99999 5.95824L7.11715 4.77671C7.27336 4.6115 7.52662 4.6115 7.68283 4.77671C7.83904 4.94192 7.83904 5.20978 7.68283 5.37499L6.56567 6.55652L7.68283 7.73806C7.83904 7.90327 7.83904 8.17113 7.68283 8.33634C7.52662 8.50155 7.27336 8.50155 7.11715 8.33634L5.99999 7.15481L4.88283 8.33634C4.72662 8.50155 4.47335 8.50155 4.31714 8.33634C4.16094 8.17113 4.16093 7.90327 4.31714 7.73806L5.4343 6.55652L4.31714 5.37499C4.16093 5.20978 4.16094 4.94192 4.31714 4.77671Z" fill="#666666"/>
</svg>
