<svg width="118" height="48" viewBox="0 0 118 48" fill="none" xmlns="http://www.w3.org/2000/svg">
<path d="M117 47L117 6L1 6L1 47L117 47Z" fill="#8D191D"/>
<path d="M116.777 6.21127V46.7887H1.2228V6.21127H116.777ZM117.998 5H116.852H1.14559H0V6.13542V46.8646V48H1.14559H116.854H118V46.8646V6.13347V5H117.998Z" fill="#132A3E"/>
<path d="M20.3034 42.4634C20.1065 42.4965 19.9096 42.5297 19.7107 42.5609C19.0018 41.0769 18.2359 39.6066 17.4286 38.1908C16.6035 36.7439 15.6801 35.3204 14.6818 33.9612C14.6266 33.8832 14.5695 33.8149 14.5124 33.7584C14.4888 33.735 14.477 33.7116 14.477 33.6804C14.477 33.6687 14.4789 33.6492 14.4986 33.6199C14.794 33.1539 15.0834 32.6859 15.367 32.2198C15.6466 31.7576 15.94 31.2896 16.2373 30.8314C16.3397 30.6754 16.444 30.5194 16.5484 30.3614C16.6528 30.2054 16.763 30.0514 16.8792 29.9032C16.9934 29.7569 17.1175 29.6146 17.2474 29.4819C17.3754 29.3513 17.5132 29.2284 17.6609 29.1173C17.8598 28.9671 18.0744 28.8579 18.2969 28.7975C18.6986 28.6863 19.1397 28.6785 19.5866 28.7487L19.7914 28.7819L19.7501 28.581C19.7402 28.5303 19.7323 28.4835 19.7284 28.4348C19.7225 28.3724 19.7087 28.3139 19.691 28.2612C19.6693 28.1988 19.6339 28.1442 19.5847 28.0994C19.5315 28.0487 19.4586 28.0194 19.372 28.0077C18.5155 27.8927 17.6491 27.8049 16.7965 27.7484C15.9419 27.6918 15.0736 27.6567 14.2131 27.6431L14.0497 27.6411L14.0674 27.803C14.0714 27.8303 14.0714 27.8595 14.0694 27.8946C14.0674 27.9473 14.0694 27.996 14.0753 28.0428C14.0832 28.1013 14.1029 28.152 14.1304 28.1949C14.156 28.2339 14.2151 28.2983 14.3352 28.2983C14.5479 28.2983 14.7526 28.3236 14.9476 28.3743C15.1366 28.425 15.3059 28.4972 15.4477 28.5927C15.5875 28.6863 15.6997 28.7994 15.7805 28.932C15.8592 29.0607 15.8986 29.2011 15.8986 29.3649C15.8986 29.519 15.8671 29.677 15.8021 29.831C15.7352 29.9968 15.6505 30.1606 15.5521 30.3205C15.4536 30.4804 15.3453 30.6383 15.2291 30.7943C15.111 30.9503 15.0027 31.1044 14.9102 31.2487C14.7133 31.549 14.5183 31.8474 14.3273 32.1438C14.1718 32.3836 14.0182 32.6254 13.8607 32.8692C13.6027 32.5279 13.3448 32.1867 13.0888 31.8454C12.7895 31.4495 12.4961 31.0517 12.2047 30.65C11.9113 30.2464 11.6238 29.8369 11.3482 29.4332C11.1158 29.0939 10.8874 28.7429 10.6708 28.388C10.8087 28.3802 10.9465 28.3724 11.0824 28.3646C11.3226 28.3509 11.5628 28.3373 11.8109 28.349C11.9428 28.3568 12.0826 28.347 12.1673 28.2866C12.2264 28.2437 12.2677 28.1871 12.2894 28.1169C12.3071 28.0623 12.315 28.0038 12.315 27.9395C12.315 27.8927 12.3169 27.842 12.3209 27.7913L12.3307 27.6372L12.1752 27.6392C11.0666 27.6567 9.94819 27.7113 8.85538 27.7991C7.76059 27.8868 6.65005 28.0292 5.54542 28.2222C5.47454 28.2398 5.41941 28.2495 5.38199 28.2554C5.30323 28.2651 5.23628 28.3002 5.191 28.3587C5.15162 28.4055 5.12405 28.4699 5.10239 28.5615C5.08467 28.6317 5.06301 28.7409 5.03741 28.8891L5 29.0958L5.4391 29.0042C5.52179 28.9866 5.60449 28.9691 5.68719 28.9535C5.76989 28.9379 5.84669 28.9242 5.91757 28.9145C5.98255 28.9047 6.03768 28.9008 6.07313 28.8891C6.09478 28.9223 6.12826 28.9827 6.16961 29.0685C6.76426 30.3127 7.40026 31.5568 8.06382 32.7658C8.72739 33.9787 9.46578 35.1683 10.2554 36.2973C10.3046 36.3714 10.3617 36.4553 10.4286 36.545C10.4936 36.6327 10.5547 36.7166 10.6137 36.7985C10.6689 36.8765 10.7161 36.9467 10.7555 37.0111C10.7752 37.0442 10.785 37.0657 10.7909 37.0774C10.789 37.0852 10.7831 37.0969 10.7752 37.1105C10.7555 37.1476 10.7279 37.1963 10.6905 37.2548C10.3558 37.7774 10.0171 38.2981 9.67646 38.8129C9.33582 39.3297 8.98927 39.8464 8.63484 40.3671L8.33358 40.8195C8.23316 40.9716 8.1288 41.1198 8.0205 41.266C7.91418 41.4084 7.79997 41.5488 7.68183 41.6834C7.56566 41.814 7.43964 41.9349 7.30771 42.0422C7.12065 42.1943 6.92375 42.2996 6.72094 42.3542C6.4118 42.438 6.07509 42.4536 5.73248 42.4263C5.62025 42.4185 5.50801 42.4049 5.39578 42.3873L5.19493 42.3561L5.23235 42.5531C5.24219 42.6057 5.2481 42.6564 5.25204 42.7071C5.25597 42.7734 5.26582 42.8339 5.28157 42.8885C5.29929 42.9567 5.33277 43.0172 5.37609 43.0659C5.42728 43.1225 5.50014 43.1595 5.59465 43.1771C6.50041 43.3467 7.41995 43.4754 8.32964 43.5593C9.23737 43.6412 10.1668 43.7016 11.0922 43.7328L11.2635 43.7387L11.2399 43.571C11.234 43.5261 11.23 43.4852 11.2281 43.4462C11.2261 43.3955 11.2182 43.3467 11.2064 43.3038C11.1887 43.2414 11.1552 43.1907 11.104 43.1517C11.0548 43.1127 10.9878 43.0932 10.8992 43.0874C10.7831 43.0796 10.657 43.0718 10.5192 43.0601C10.3853 43.0503 10.2495 43.0308 10.1136 43.0035C9.97773 42.9762 9.84186 42.9392 9.71388 42.8904C9.59179 42.8456 9.4835 42.7851 9.38898 42.7071C9.25706 42.6018 9.15467 42.4692 9.08181 42.3113C9.00896 42.1514 8.97155 41.9837 8.97155 41.8101C8.97155 41.6502 9.00699 41.5001 9.07591 41.3674C9.15467 41.2192 9.24131 41.073 9.33582 40.9326C9.4323 40.7883 9.53469 40.644 9.63905 40.5016C9.74341 40.3573 9.84974 40.215 9.95804 40.0726C10.0683 39.9283 10.1707 39.7821 10.2672 39.6358C10.4818 39.3102 10.6945 38.9884 10.9051 38.6686C11.0784 38.4053 11.2497 38.1382 11.423 37.8691C11.7282 38.2688 12.0373 38.6686 12.3484 39.0683C12.7009 39.5208 13.0514 39.9751 13.3979 40.4314C13.7445 40.8877 14.0851 41.3538 14.414 41.8121C14.6955 42.206 14.9712 42.6135 15.237 43.0269C15.1386 43.0328 15.0401 43.0367 14.9417 43.0406L14.4061 43.062C14.3766 43.062 14.349 43.0601 14.3214 43.0581C14.1344 43.0386 14.0418 43.1069 14.0083 43.1556C13.9808 43.1985 13.9591 43.2492 13.9473 43.3058C13.9355 43.3545 13.9296 43.4091 13.9276 43.4696C13.9256 43.5183 13.9237 43.5632 13.9197 43.6041L13.906 43.7601L14.0654 43.7582C15.1701 43.7406 16.2865 43.686 17.3793 43.5983C18.4741 43.5105 19.5788 43.3682 20.6617 43.1771C20.7346 43.1634 20.7917 43.1537 20.8311 43.1478C20.9098 43.1381 20.9748 43.103 21.0221 43.0445C21.0614 42.9977 21.089 42.9294 21.1087 42.8378C21.1225 42.7695 21.1461 42.6603 21.1756 42.5102L21.217 42.3015L21.0063 42.3444C20.768 42.3815 20.5357 42.4244 20.3034 42.4634Z" fill="white"/>
<path d="M34.0453 33.9592L34.2638 34.008L34.2185 33.7915C34.2087 33.7467 34.2028 33.7038 34.1989 33.655C34.1929 33.5907 34.1831 33.5341 34.1693 33.4815C34.1496 33.4152 34.1162 33.3586 34.0669 33.3099C34.0157 33.2592 33.9448 33.2241 33.8543 33.2085C33.0115 33.072 32.1629 32.9725 31.33 32.914C30.499 32.8575 29.6504 32.8204 28.8057 32.8048L28.6403 32.8029L28.66 32.9667C28.6659 33.0193 28.6718 33.072 28.6718 33.1246C28.6737 33.1851 28.6796 33.2455 28.6875 33.3079L28.7033 33.4327H29.3117C29.4318 33.4327 29.5539 33.4347 29.6779 33.4366C29.6779 33.5068 29.6681 33.579 29.6484 33.6472C29.6267 33.7252 29.5992 33.8032 29.5657 33.8812C29.5322 33.9612 29.4968 34.0392 29.4574 34.1152C29.4161 34.1971 29.3787 34.281 29.3452 34.361C28.8234 35.5778 28.3016 36.7985 27.7837 38.0192C27.3466 39.0488 26.9095 40.0941 26.4842 41.1393C26.4507 40.7025 26.4231 40.2637 26.4015 39.8289C26.37 39.199 26.3562 38.5574 26.3562 37.9237C26.3562 37.2256 26.3778 36.5079 26.4212 35.7942C26.4645 35.0805 26.5432 34.3707 26.6555 33.6804L26.6968 33.501C26.7303 33.4951 26.7815 33.4893 26.8484 33.4873L27.4136 33.4659C27.579 33.4581 27.6498 33.384 27.6794 33.3216C27.7069 33.265 27.7207 33.1987 27.7207 33.1227C27.7207 33.1032 27.7188 33.0817 27.7168 33.0622C27.7148 33.0505 27.7148 33.0388 27.7148 33.0252C27.7148 33.0037 27.7148 32.9881 27.7168 32.9764L27.7522 32.8029L27.573 32.8068C26.7067 32.8204 25.8285 32.8575 24.9621 32.916C24.0918 32.9745 23.2195 33.0817 22.3689 33.2377L22.2724 33.2553L22.1247 33.9963L22.3295 33.9631C22.5087 33.9339 22.6839 33.9066 22.8592 33.8793C22.9655 33.8617 23.0718 33.8461 23.1782 33.8305C22.8769 35.2736 22.7253 36.7537 22.7253 38.2337C22.7253 39.7216 22.8808 41.2153 23.186 42.6759C23.0797 42.6545 22.9734 42.633 22.869 42.6116C22.6918 42.5745 22.5146 42.5355 22.3374 42.4946L22.1208 42.4458L22.1641 42.6603C22.1739 42.711 22.1818 42.7578 22.1858 42.8066C22.1917 42.869 22.2035 42.9236 22.2173 42.9743C22.237 43.0386 22.2685 43.0971 22.3137 43.1439C22.3649 43.1966 22.4339 43.2317 22.5264 43.2492C23.3632 43.3857 24.2099 43.4852 25.0428 43.5437C25.8757 43.6002 26.7264 43.6373 27.5711 43.6529L27.7365 43.6548L27.7168 43.491C27.7109 43.4384 27.705 43.3857 27.705 43.3331C27.703 43.2726 27.6991 43.2102 27.6912 43.1439L27.6754 43.0094L27.5396 43.0191C27.4884 43.023 27.4372 43.025 27.388 43.025H26.8977C26.8307 43.025 26.7618 43.025 26.6949 43.023L26.6929 43.0055C26.6889 42.9704 26.685 42.9372 26.685 42.908C26.685 42.8573 26.6909 42.8085 26.7027 42.7598C26.7165 42.7052 26.7382 42.6408 26.7657 42.5667C27.323 41.2348 27.8861 39.9049 28.4512 38.5828C28.9376 37.444 29.418 36.2895 29.8867 35.1371C29.9241 35.5914 29.9536 36.0438 29.9753 36.4943C30.0068 37.1378 30.0245 37.7969 30.0245 38.4541C30.0245 39.162 30.0028 39.8893 29.9615 40.6186C29.9201 41.346 29.8394 42.0714 29.7252 42.7793C29.7154 42.8495 29.7055 42.9041 29.6917 42.9587C29.6563 42.9626 29.6031 42.9684 29.5283 42.9723C29.4358 42.9801 29.3452 42.984 29.2546 42.986C29.1601 42.9879 29.0656 42.9899 28.975 42.9938C28.8805 42.9938 28.8076 43.0191 28.7564 43.0698C28.7151 43.1108 28.6855 43.1634 28.6698 43.2258C28.656 43.2765 28.6521 43.3331 28.658 43.3916C28.6619 43.4306 28.6639 43.4696 28.6639 43.5105V43.6548L28.8096 43.6529C29.6898 43.6392 30.568 43.6002 31.4186 43.5398C32.2751 43.4774 33.1513 43.3721 34.0177 43.2239L34.1122 43.2083L34.1339 43.1166C34.1536 43.0386 34.1693 42.9606 34.1831 42.8826C34.1949 42.8105 34.2087 42.7344 34.2245 42.6603L34.2638 42.4595L34.061 42.4926C33.8858 42.5219 33.7105 42.5492 33.5353 42.5765C33.427 42.594 33.3207 42.6096 33.2124 42.6252C33.3561 41.9349 33.4664 41.2329 33.5412 40.5387C33.6239 39.7782 33.6652 39.0001 33.6652 38.222C33.6652 36.7342 33.5097 35.2424 33.2045 33.7837C33.3108 33.8032 33.4171 33.8247 33.5235 33.8461C33.6889 33.8812 33.8661 33.9183 34.0453 33.9592Z" fill="white"/>
<path d="M47.3816 34.008L47.5982 34.0567L47.5548 33.8422C47.545 33.7935 47.5391 33.7486 47.5351 33.7018C47.5312 33.6414 47.5214 33.5848 47.5056 33.5322C47.4859 33.4659 47.4524 33.4093 47.4032 33.3606C47.352 33.3099 47.2811 33.2767 47.1925 33.2592C46.3458 33.1188 45.4952 33.0174 44.6643 32.9628C43.8334 32.9062 42.9867 32.8711 42.1479 32.8575L41.9903 32.8555L42.0022 33.0115C42.0061 33.0564 42.0061 33.0993 42.0041 33.1363C42.0021 33.1929 42.0061 33.2416 42.0159 33.2865C42.0317 33.3508 42.0711 33.4035 42.1262 33.4386C42.1774 33.4717 42.2424 33.4854 42.3349 33.4854H42.9867C43.0201 33.4854 43.032 33.4893 43.032 33.4893C43.0418 33.499 43.0477 33.5146 43.0497 33.5244C43.0576 33.5595 43.0615 33.6004 43.0615 33.6433C43.0615 33.7057 43.0654 33.7662 43.0733 33.8286L43.1068 34.0587C43.1166 34.1347 43.1265 34.2088 43.1343 34.2868C43.1914 34.7744 43.2348 35.2658 43.2623 35.7494C43.2899 36.2388 43.3096 36.7264 43.3253 37.2178L43.3273 37.2451L43.3116 37.2412L43.2781 37.2509C43.2387 37.2626 43.1974 37.2685 43.156 37.2704C43.0989 37.2724 43.0418 37.2782 42.9867 37.286C42.4097 37.3621 41.8368 37.4401 41.2697 37.522C40.7577 37.5961 40.2438 37.6682 39.7259 37.7404C39.7378 37.1554 39.7555 36.5606 39.783 35.9736C39.8126 35.3379 39.8697 34.6905 39.9524 34.0489C39.9603 33.9904 39.9662 33.9222 39.9681 33.8461C39.9701 33.7837 39.976 33.7252 39.9878 33.6706C39.9977 33.6238 40.0115 33.5868 40.0548 33.5478C40.1709 33.54 40.2851 33.5361 40.4013 33.5322L40.7538 33.5205C40.8857 33.5146 40.9743 33.4678 41.0176 33.382C41.0452 33.3255 41.061 33.2592 41.061 33.1831C41.061 33.1597 41.059 33.1383 41.057 33.1149C41.055 33.1032 41.055 33.0915 41.055 33.0798C41.055 33.0466 41.057 33.0349 41.057 33.033L41.0944 32.8575L40.9133 32.8614C40.0469 32.875 39.1687 32.9121 38.3023 32.9706C37.434 33.0291 36.5597 33.1363 35.7091 33.2923L35.6126 33.3099L35.4649 34.0509L35.6697 34.0177C35.8489 33.9885 36.0242 33.9612 36.1994 33.9339C36.3057 33.9183 36.4121 33.9007 36.5184 33.8851C36.2191 35.3262 36.0655 36.8063 36.0655 38.2883C36.0655 39.7782 36.2211 41.2719 36.5263 42.7305C36.4199 42.7091 36.3136 42.6876 36.2092 42.6662C36.032 42.6272 35.8548 42.5901 35.6776 42.5492L35.461 42.5004L35.5043 42.7149C35.5142 42.7656 35.522 42.8144 35.528 42.8612C35.5339 42.9236 35.5457 42.9801 35.5595 43.0308C35.5792 43.0952 35.6107 43.1517 35.6559 43.1985C35.7052 43.2512 35.7761 43.2863 35.8686 43.3038C36.7054 43.4423 37.5521 43.5398 38.385 43.5983C39.2179 43.6568 40.0666 43.6919 40.9133 43.7075L41.0806 43.7094L41.059 43.5456C41.0511 43.493 41.0472 43.4403 41.0472 43.3877C41.0452 43.3292 41.0393 43.2648 41.0334 43.2005L41.0176 43.0659L40.8798 43.0757C40.8286 43.0796 40.7774 43.0815 40.7282 43.0815H40.3206C40.2418 43.0815 40.1631 43.0796 40.0804 43.0757L40.0449 43.0737L40.0311 43.0796L40.0331 43.0737L40.0292 43.0445C39.9071 42.2859 39.8244 41.5137 39.787 40.7512C39.7515 40.0258 39.7299 39.2907 39.7259 38.5574C40.3383 38.4794 40.9527 38.3936 41.5532 38.302C42.14 38.2123 42.7405 38.1284 43.3391 38.0524C43.3372 38.8519 43.3194 39.6573 43.2879 40.4509C43.2545 41.2933 43.1718 42.1455 43.0457 42.9801C43.0418 43.0035 43.0398 43.0191 43.0359 43.0308C43.0182 43.0308 42.9985 43.0289 42.9749 43.0289C42.8626 43.0211 42.7622 43.0269 42.6578 43.0347C42.5633 43.0425 42.4472 43.0445 42.3704 43.0406C42.3369 43.0386 42.3093 43.0367 42.2837 43.0367C42.1518 43.0367 42.0553 43.1186 42.0317 43.2512C42.0199 43.3175 42.01 43.4189 42.0022 43.5573L41.9943 43.7094L42.1479 43.7075C43.0221 43.6938 43.9003 43.6548 44.7549 43.5944C45.6094 43.532 46.4837 43.4267 47.352 43.2785L47.4446 43.2629L47.4662 43.1712C47.4859 43.0932 47.5017 43.0152 47.5155 42.9372C47.5273 42.8651 47.541 42.791 47.5568 42.7149L47.5962 42.5141L47.3934 42.5472C47.2181 42.5765 47.0429 42.6038 46.8676 42.6311C46.7593 42.6467 46.653 42.6642 46.5447 42.6798C46.6885 41.9876 46.7987 41.2875 46.8735 40.5913C46.9562 39.8289 46.9976 39.0508 46.9976 38.2766C46.9976 36.7888 46.842 35.297 46.5368 33.8383C46.6432 33.8578 46.7495 33.8793 46.8558 33.9007C47.0271 33.93 47.2043 33.969 47.3816 34.008Z" fill="white"/>
<path d="M60.2 41.9018C60.1665 41.8784 60.1311 41.8472 60.0956 41.8082L59.9617 41.6658L59.8653 41.8355C59.8416 41.8784 59.8003 41.933 59.7432 41.9973C59.6841 42.0656 59.6191 42.1319 59.5443 42.1962C59.4734 42.2586 59.3966 42.3132 59.3198 42.3581C59.1879 42.4322 59.0737 42.4088 59.0402 42.3737C59.0008 42.3327 58.9693 42.2781 58.9418 42.2099C58.9142 42.1358 58.8925 42.048 58.8827 41.9505C58.8709 41.8472 58.865 41.7458 58.865 41.6463C58.865 41.5059 58.8709 41.3674 58.8807 41.2329C58.8926 41.0886 58.8985 40.9618 58.8985 40.8507C58.8985 40.5952 58.8847 40.3339 58.8591 40.0746C58.8315 39.8094 58.7803 39.552 58.7035 39.3082C58.6248 39.0586 58.5106 38.8246 58.3629 38.6081C58.2113 38.3897 58.0124 38.1967 57.7682 38.0348C57.6068 37.9276 57.4335 37.8398 57.2543 37.7755C57.0791 37.7111 56.8979 37.6624 56.7128 37.6253C56.5297 37.5902 56.3427 37.5668 56.1576 37.5551C55.8681 37.5376 55.5806 37.5298 55.2932 37.5493C55.2676 37.5512 55.24 37.5532 55.2144 37.5551C55.2242 37.5473 55.236 37.5395 55.2459 37.5337C55.2971 37.4986 55.3345 37.4674 55.3601 37.444C55.5688 37.2451 55.7342 37.013 55.8484 36.7576C55.9587 36.5099 56.0453 36.2486 56.1064 35.9814C56.1654 35.7182 56.2088 35.4432 56.2343 35.1683C56.2599 34.8992 56.2895 34.6418 56.321 34.3922C56.3289 34.3337 56.3407 34.2654 56.3584 34.1854C56.3742 34.1094 56.3978 34.0353 56.4293 33.9651C56.4569 33.9027 56.4903 33.85 56.5336 33.8091C56.5612 33.7818 56.5927 33.7701 56.64 33.7701C56.7345 33.7701 56.7719 33.8032 56.7936 33.8286C56.8428 33.889 56.8802 33.9651 56.9058 34.0509C56.9353 34.1503 56.959 34.2537 56.9767 34.359C56.9964 34.4838 57.0259 34.5872 57.0633 34.671C57.1263 34.8095 57.2248 34.9538 57.3508 35.0981C57.4748 35.2404 57.6206 35.373 57.784 35.492C57.9474 35.6109 58.1246 35.7084 58.3097 35.7825C58.6464 35.919 58.9969 35.9424 59.2883 35.8157C59.4143 35.7611 59.5246 35.6831 59.6172 35.5856C59.7097 35.4881 59.7826 35.3672 59.8338 35.2307C59.883 35.0961 59.9086 34.946 59.9086 34.7861C59.9086 34.4507 59.8357 34.1406 59.69 33.8637C59.5463 33.5907 59.3513 33.3547 59.1111 33.1597C58.8729 32.9667 58.5952 32.8165 58.2841 32.7132C57.8431 32.565 57.3587 32.5123 56.8959 32.5942C56.7542 32.6196 56.6183 32.6625 56.4943 32.7229C56.3682 32.7834 56.2501 32.8614 56.1457 32.955C56.0374 33.0525 55.9488 33.1714 55.878 33.3079C55.813 33.4366 55.7598 33.5731 55.7185 33.7116C55.6791 33.8481 55.6456 33.9865 55.622 34.123C55.5984 34.2595 55.5767 34.3961 55.5609 34.5345C55.5452 34.6671 55.5255 34.7978 55.5038 34.9284C55.4605 35.2073 55.4054 35.4881 55.3365 35.763C55.2695 36.0321 55.173 36.2954 55.051 36.545C54.9269 36.8005 54.7635 37.0013 54.5685 37.1417C54.3657 37.288 54.1393 37.3991 53.8932 37.4771C53.6411 37.5551 53.3733 37.6117 53.0977 37.6448C52.8673 37.6721 52.6428 37.7014 52.4203 37.7287C52.4282 37.0442 52.4499 36.3558 52.4833 35.6811C52.5188 34.9557 52.5877 34.2186 52.6901 33.4873L52.694 33.4639L52.6901 33.4405L52.7098 33.4444L52.7275 33.4425C52.8555 33.4347 52.9835 33.4269 53.1134 33.4171C53.2375 33.4093 53.3615 33.4035 53.4856 33.4035C53.5112 33.4035 53.5348 33.4035 53.5525 33.4054C53.5801 33.4074 53.6057 33.4093 53.6273 33.4093C53.7612 33.4093 53.8558 33.3294 53.8754 33.1987C53.8853 33.1363 53.8951 33.0291 53.907 32.877L53.9188 32.719L53.7593 32.7229C52.8555 32.7483 51.9399 32.7951 51.04 32.8614C50.1362 32.9277 49.2285 33.0447 48.3425 33.2085L48.246 33.226L48.2263 33.3196C48.2105 33.3937 48.1967 33.4698 48.1849 33.5458C48.1711 33.6219 48.1593 33.6979 48.1495 33.7701L48.1199 33.9631L48.3149 33.93C48.4882 33.9007 48.6614 33.8754 48.8347 33.852C48.943 33.8383 49.0533 33.8227 49.1616 33.8071C48.8898 35.2521 48.752 36.7322 48.752 38.2064C48.752 38.9923 48.7914 39.7821 48.8682 40.5523C48.9391 41.2543 49.0415 41.9661 49.1753 42.6662C49.069 42.6428 48.9607 42.6213 48.8544 42.596C48.6811 42.557 48.5059 42.5121 48.3287 42.4614L48.118 42.401L48.1475 42.6155C48.1554 42.6662 48.1593 42.7169 48.1633 42.7656C48.1672 42.8261 48.1771 42.8826 48.1889 42.9353C48.2066 43.0055 48.2381 43.064 48.2834 43.1127C48.3326 43.1654 48.4035 43.2005 48.4921 43.218C49.3604 43.3877 50.2445 43.5086 51.1188 43.5749C51.9911 43.6412 52.8791 43.6782 53.7612 43.6802H53.9148L53.8932 43.3467C53.8892 43.2902 53.8873 43.2317 53.8873 43.1732V43.0308H53.7435C53.6017 43.0308 53.4619 43.0347 53.3261 43.0445C53.1233 43.0581 52.9579 43.0679 52.8417 43.0445C52.8122 43.0386 52.7866 43.0269 52.7669 43.0074C52.7433 42.9879 52.7236 42.9567 52.7078 42.9177C52.6881 42.869 52.6724 42.8007 52.6625 42.7091C52.5719 42.0285 52.507 41.3304 52.4696 40.6362C52.4321 39.942 52.4125 39.24 52.4125 38.5496C52.4125 38.5457 52.4125 38.5438 52.4125 38.5418C52.4321 38.5379 52.4636 38.5301 52.5109 38.5243C52.6527 38.5067 52.7944 38.4892 52.9362 38.4736C53.0721 38.458 53.2119 38.4502 53.3477 38.4502C53.779 38.4502 54.1196 38.5496 54.3598 38.7427C54.606 38.9416 54.791 39.2283 54.9131 39.5968C54.982 39.8074 55.0411 40.02 55.0923 40.2306C55.1455 40.4451 55.1927 40.6615 55.2361 40.8799C55.2794 41.1003 55.3207 41.3187 55.3621 41.539C55.4034 41.7594 55.4448 41.9817 55.4881 42.204C55.5373 42.4361 55.5944 42.6506 55.6633 42.8397C55.7362 43.0425 55.8405 43.218 55.9744 43.3604C56.1123 43.5066 56.2915 43.6197 56.51 43.6977C56.7207 43.7738 56.9924 43.8128 57.3134 43.8128C57.8096 43.8128 58.2881 43.7153 58.739 43.5261C59.1879 43.335 59.5935 43.0542 59.9381 42.6935C59.9736 42.6584 60.011 42.6174 60.0543 42.5706C60.0976 42.5219 60.137 42.4751 60.1724 42.4263C60.2098 42.3776 60.2433 42.3288 60.2709 42.284C60.3122 42.2177 60.33 42.1631 60.33 42.1104C60.324 42.0383 60.2788 41.9583 60.2 41.9018Z" fill="white"/>
<path d="M84.1986 42.6291C84.4664 41.2114 84.6023 39.7665 84.6023 38.3293C84.6023 37.5259 84.5609 36.7186 84.4782 35.9307C84.4034 35.2131 84.2912 34.4877 84.1415 33.772L84.4605 33.8364C84.6357 33.8734 84.811 33.9105 84.9862 33.9495L85.2028 33.9982L85.1595 33.7818C85.1497 33.733 85.1438 33.6882 85.1398 33.6433C85.1359 33.5829 85.126 33.5244 85.1103 33.4737C85.0906 33.4093 85.0591 33.3528 85.0138 33.304C84.9626 33.2514 84.8937 33.2163 84.8051 33.2007C83.9328 33.0388 83.0369 32.9238 82.1429 32.8594C80.6189 32.7522 79.0712 32.7424 77.5827 32.8029C76.9663 32.8282 76.3363 32.8672 75.7101 32.9179L75.6077 32.9257L75.4147 33.6648L75.6254 33.6394C75.7436 33.6238 75.8775 33.6063 76.0271 33.5829C76.3048 33.538 76.6178 33.5302 76.797 33.6063C76.8836 33.6433 76.9506 33.6901 77.0018 33.7545C77.0549 33.8188 77.0924 33.8988 77.116 33.9924C77.1416 34.0938 77.1554 34.2088 77.1554 34.3337C77.1554 34.4955 77.1436 34.6574 77.1219 34.8153C77.0983 34.985 77.0825 35.1293 77.0746 35.2502C77.0353 35.7708 77.0038 36.2973 76.9841 36.8161C76.9644 37.3348 76.9545 37.8632 76.9545 38.3878C76.9545 38.8811 76.9644 39.3804 76.9841 39.8737C77.0038 40.3612 77.0136 40.8565 77.0136 41.3479V41.6112C77.0136 41.697 77.0116 41.7828 77.0077 41.8686C77.0038 41.9505 76.9979 42.0441 76.99 42.1533C76.9821 42.2508 76.9624 42.3444 76.9348 42.4322C76.9073 42.5102 76.8699 42.5745 76.8187 42.6291C76.795 42.6545 76.7517 42.6876 76.6552 42.6876C76.5332 42.6876 76.4249 42.6642 76.3343 42.6194C76.2398 42.5726 76.1571 42.5082 76.0862 42.4322C76.0133 42.3522 75.9503 42.2606 75.9011 42.1592C75.8479 42.0519 75.8026 41.9427 75.7692 41.8335C75.7081 41.6541 75.6294 41.4766 75.5329 41.3089C75.4344 41.1373 75.3104 40.9852 75.1647 40.8565C75.017 40.7259 74.8437 40.6225 74.6448 40.5465C74.446 40.4704 74.2176 40.4314 73.9636 40.4314C73.8159 40.4314 73.68 40.4607 73.5619 40.5153C73.4437 40.5718 73.3453 40.6498 73.2665 40.7473C73.1897 40.8429 73.1307 40.9579 73.0913 41.0905C73.0519 41.2173 73.0381 41.3928 73.0381 41.539C73.0381 41.539 72.3253 42.0987 72.2269 42.165C72.1324 42.2313 72.0319 42.2879 71.9315 42.3347C71.8429 42.3756 71.7642 42.3971 71.7031 42.3971C71.646 42.3971 71.6322 42.3776 71.6243 42.3659C71.6125 42.3464 71.583 42.2859 71.583 42.1163C71.583 42.0383 71.5909 41.9564 71.6047 41.8725C71.6204 41.7828 71.6381 41.6931 71.6578 41.6015C71.6775 41.5079 71.6972 41.4181 71.7149 41.3245C71.7326 41.2309 71.7484 41.1412 71.7602 41.0535C71.8114 40.605 71.8508 40.1545 71.8764 39.7158C71.902 39.2712 71.9158 38.8187 71.9158 38.3722C71.9158 37.834 71.898 37.2899 71.8626 36.7537C71.8272 36.2213 71.776 35.6792 71.7051 35.139L71.6618 34.8251C71.646 34.7159 71.6263 34.6067 71.5988 34.5014C71.5712 34.396 71.5377 34.2907 71.4983 34.1854C71.457 34.0801 71.4038 33.9748 71.3388 33.8715C71.2069 33.6726 71.0494 33.4971 70.8682 33.3547C70.691 33.2124 70.4922 33.0915 70.2795 32.994C70.0708 32.8984 69.8463 32.8224 69.614 32.7639C69.3856 32.7073 69.1493 32.6625 68.911 32.6313C68.6728 32.6001 68.4345 32.5806 68.2002 32.5708C67.6075 32.5474 67.07 32.5552 66.5147 32.5903C66.1741 32.6118 65.8334 32.6547 65.5006 32.7171C65.1679 32.7795 64.8351 32.8672 64.5122 32.9764C64.1853 33.0876 63.8703 33.2377 63.5749 33.4171C63.3583 33.5497 63.1417 33.7057 62.931 33.8812C62.7184 34.0587 62.5235 34.2595 62.3541 34.4741C62.1828 34.6925 62.043 34.9284 61.9386 35.178C61.8323 35.4315 61.7772 35.7026 61.7772 35.9814C61.7772 36.2213 61.8185 36.4514 61.8993 36.662C61.98 36.8746 62.0903 37.0618 62.2301 37.2178C62.3699 37.3757 62.5372 37.5025 62.7302 37.5941C63.1437 37.7891 63.6596 37.7774 64.0967 37.5551C64.3251 37.4381 64.526 37.2821 64.6973 37.091C64.8666 36.8999 65.0025 36.6795 65.1029 36.4358C65.2053 36.1881 65.2565 35.9307 65.2565 35.6714C65.2565 35.5076 65.2328 35.3457 65.1876 35.1936C65.1403 35.0396 65.0694 34.8933 64.9729 34.7529C64.9217 34.6847 64.8646 34.6145 64.7977 34.5423C64.7386 34.478 64.6815 34.4136 64.6284 34.3493C64.5791 34.2888 64.5378 34.2283 64.5023 34.1679C64.4748 34.1191 64.463 34.0723 64.463 34.0197C64.463 33.9397 64.5043 33.8539 64.587 33.7603C64.6894 33.6433 64.8194 33.5478 64.971 33.4795C65.1324 33.4074 65.3018 33.3508 65.475 33.3138C65.6503 33.2767 65.8255 33.2514 65.9929 33.2377C66.1642 33.226 66.3099 33.2182 66.432 33.2182C66.6171 33.2182 66.8041 33.2377 66.9873 33.2767C67.1625 33.3138 67.3259 33.384 67.4697 33.4776C67.5583 33.54 67.6351 33.6141 67.6961 33.6921C67.7572 33.774 67.8084 33.8656 67.8477 33.9612C67.8871 34.0587 67.9147 34.162 67.9324 34.2673C67.9501 34.3805 67.9619 34.4936 67.9698 34.6028L68.0033 35.2833C68.0131 35.5154 68.023 35.7455 68.0309 35.9756C68.0387 36.2057 68.0446 36.4319 68.0505 36.6542C68.0565 36.8707 68.0584 37.0754 68.0584 37.2743C68.0486 37.2782 68.0328 37.2821 68.0112 37.286C67.2216 37.4381 66.4261 37.6117 65.6424 37.8047C64.8627 37.9978 64.0731 38.2045 63.2933 38.4209C63.0137 38.497 62.7401 38.5847 62.4762 38.6822C62.2045 38.7836 61.9603 38.9143 61.7477 39.0742C61.5291 39.238 61.3519 39.4447 61.22 39.6904C61.088 39.9381 61.0191 40.2481 61.0191 40.6128C61.0191 40.8585 61.0467 41.1022 61.1018 41.3382C61.1569 41.5741 61.2377 41.8062 61.342 42.0227C61.4464 42.2411 61.5764 42.4478 61.728 42.6408C61.8816 42.8339 62.0568 43.0074 62.2498 43.1576C62.6258 43.4481 63.0354 43.6646 63.4647 43.7991C63.8919 43.9337 64.3369 44 64.7878 44C65.1029 44 65.4199 43.9669 65.729 43.9025C66.0362 43.8381 66.3414 43.7426 66.6348 43.6178C66.9282 43.493 67.2098 43.337 67.4716 43.1537C67.6725 43.0133 67.8635 42.8553 68.0387 42.6837C68.1096 42.8397 68.1963 42.9821 68.2947 43.1088C68.4365 43.2941 68.6019 43.452 68.787 43.5768C68.9701 43.7016 69.1729 43.7972 69.3895 43.8635C69.8798 44.0117 70.437 43.9883 70.9529 43.8186C71.2384 43.725 71.5141 43.5983 71.7701 43.4423C72.026 43.2863 72.2702 43.1049 72.4947 42.9002C72.7172 42.6974 72.92 42.4829 73.0952 42.2606L73.1464 42.1962C73.1878 42.3132 73.237 42.4263 73.302 42.5297C73.4812 42.8163 73.7135 43.0581 73.9931 43.2492C74.2688 43.4384 74.5799 43.5807 74.9166 43.6763C75.2513 43.7699 75.5801 43.8167 75.8991 43.8167C76.2102 43.8167 76.478 43.7679 76.6946 43.6743C76.9151 43.5788 77.1002 43.4462 77.242 43.2785C77.3818 43.1127 77.4921 42.9177 77.5669 42.6954C77.6378 42.4829 77.6929 42.2508 77.7264 42.009C77.7599 41.7711 77.7796 41.5176 77.7855 41.2563C77.7914 40.9989 77.7933 40.7415 77.7933 40.4841C77.7933 40.0824 77.7894 39.6826 77.7796 39.2829C77.7697 38.887 77.7658 38.4892 77.7658 38.0933C77.7658 37.7111 77.7697 37.3309 77.7796 36.9506C77.7894 36.5703 77.8032 36.1901 77.8209 35.8059C77.8308 35.5232 77.8426 35.2365 77.8504 34.944C77.8583 34.6632 77.8977 34.3863 77.9646 34.123C78.0158 33.9202 78.0985 33.7681 78.2108 33.6745C78.3289 33.577 78.4746 33.5088 78.644 33.4717C78.8271 33.4327 79.0319 33.4132 79.2603 33.4171C79.5005 33.421 79.7525 33.423 80.0203 33.423H80.6307C80.7508 34.201 80.8414 34.9869 80.9005 35.7591C80.9615 36.5742 80.993 37.4069 80.993 38.2337C80.993 39.0391 80.9635 39.862 80.9084 40.6752C80.8552 41.4493 80.7745 42.2255 80.6662 42.986C80.5323 42.9938 80.3984 43.0016 80.2665 43.0094C80.0971 43.0191 79.9297 43.0269 79.7604 43.0328C79.7132 43.0347 79.5714 43.0425 79.5025 43.1478C79.467 43.2024 79.4493 43.2687 79.4493 43.3467C79.4493 43.3779 79.4513 43.4111 79.4532 43.4481C79.4552 43.4774 79.4552 43.5086 79.4552 43.5417V43.688L79.6029 43.6841C80.5126 43.6587 81.4302 43.6158 82.328 43.5534C83.2279 43.493 84.1336 43.3779 85.0197 43.2161L85.1162 43.1985L85.1359 43.1049C85.1516 43.0308 85.1635 42.9587 85.1753 42.8865L85.2363 42.4829L85.0433 42.5141C84.7696 42.5511 84.4881 42.5921 84.1986 42.6291ZM68.0446 38.0387V38.263C68.0446 38.8889 68.0387 39.513 68.0249 40.1155C68.0131 40.7044 67.9934 41.305 67.9659 41.9037C67.832 42.0246 67.6941 42.1397 67.5563 42.2469C67.4047 42.3639 67.2432 42.4692 67.0759 42.5589C66.9105 42.6486 66.7352 42.7208 66.558 42.7734C66.2902 42.8534 65.9791 42.8709 65.6956 42.828C65.6011 42.8144 65.5105 42.7871 65.4278 42.752C65.3471 42.7169 65.2742 42.6701 65.2092 42.6116C65.1482 42.557 65.097 42.4848 65.0556 42.3951C64.9454 42.1689 64.8686 41.9291 64.8253 41.6814C64.7819 41.4298 64.7583 41.1724 64.7583 40.917C64.7583 40.7181 64.7721 40.5133 64.7977 40.3086C64.8233 40.1155 64.8804 39.9361 64.971 39.7743C65.0576 39.6105 65.1718 39.4642 65.3077 39.3355C65.4514 39.201 65.6011 39.0742 65.7546 38.9572C65.9299 38.8226 66.115 38.7037 66.3099 38.6062C66.5048 38.5067 66.7096 38.419 66.9164 38.3449C67.1251 38.2708 67.3397 38.2064 67.5563 38.1518C67.7197 38.1148 67.8812 38.0758 68.0446 38.0387Z" fill="white"/>
<path d="M96.7709 41.0086C96.8635 40.6966 96.9107 40.3807 96.9107 40.0687C96.9107 39.8035 96.8753 39.5442 96.8064 39.2926C96.7375 39.0391 96.6331 38.7992 96.4953 38.5808C96.3574 38.3605 96.1802 38.1577 95.9695 37.9783C95.7588 37.8008 95.5107 37.6507 95.2311 37.5317C94.7586 37.3367 94.2722 37.2022 93.7839 37.1339C92.8663 37.0052 91.8877 37.013 90.9485 37.0852C90.5606 37.1144 90.1727 37.1417 89.7848 37.1651C89.8163 36.6249 89.8694 36.0906 89.9443 35.5758C90.027 35.0103 90.1412 34.4273 90.2869 33.8442C90.3026 33.7759 90.3184 33.7233 90.3322 33.6862C90.342 33.6628 90.3499 33.655 90.3499 33.655C90.3519 33.655 90.3597 33.6492 90.3853 33.6453C90.4286 33.6394 90.4877 33.6355 90.5645 33.6316C90.6984 33.6238 90.8323 33.618 90.9662 33.6121C91.1021 33.6063 91.2379 33.6004 91.3738 33.5926L91.4782 33.5868L91.5569 33.2845C91.5727 33.2241 91.5904 33.1617 91.612 33.1012L91.677 32.9082L91.4722 32.914C90.5803 32.9394 89.6765 32.9803 88.7865 33.0369C87.8925 33.0934 86.9927 33.1851 86.1165 33.3118L86.0259 33.3255L86.0003 33.4132C85.9786 33.4873 85.957 33.5634 85.9353 33.6414L85.827 34.0665L86.0357 34.0411C86.211 34.0197 86.3862 33.9982 86.5615 33.9787C86.6678 33.967 86.7741 33.9553 86.8804 33.9417C86.7032 34.6203 86.5654 35.3126 86.4729 36.0009C86.3705 36.7615 86.3173 37.5395 86.3173 38.3156C86.3173 39.0956 86.3705 39.8796 86.4748 40.644C86.5693 41.3362 86.7072 42.0285 86.8883 42.7091C86.784 42.6915 86.6776 42.6759 86.5733 42.6603C86.398 42.633 86.2208 42.6038 86.0436 42.5706L85.8211 42.5297L85.8802 42.7461C85.894 42.7949 85.9038 42.8436 85.9097 42.8904C85.9176 42.9528 85.9333 43.0133 85.953 43.0679C85.9786 43.1322 86.0141 43.1868 86.0594 43.2297C86.1125 43.2804 86.1874 43.3116 86.2799 43.3233C87.1975 43.4384 88.1524 43.532 89.1192 43.6041C90.0841 43.6743 91.0627 43.7094 92.0275 43.7094C92.4351 43.7094 92.8466 43.688 93.2503 43.6431C93.6598 43.5983 94.0556 43.5105 94.4317 43.3818C94.8098 43.2512 95.1681 43.0679 95.495 42.8339C95.8258 42.5999 96.1192 42.2859 96.3633 41.9037C96.5386 41.619 96.6784 41.3187 96.7709 41.0086ZM92.4115 42.5921C92.3819 42.6681 92.3426 42.7364 92.2914 42.7949C92.2421 42.8514 92.1772 42.8982 92.0925 42.9372C91.9586 42.9996 91.8188 43.0425 91.6751 43.0659C91.3718 43.1127 91.045 43.1088 90.7339 43.0815C90.6078 43.0698 90.4838 43.0601 90.3617 43.0503C90.1707 42.3698 90.0289 41.6736 89.9384 40.9794C89.8439 40.252 89.7867 39.5071 89.769 38.7583C89.7651 38.7076 89.7592 38.6335 89.7493 38.536C89.7415 38.4443 89.7356 38.3507 89.7356 38.2532C89.7356 38.1577 89.7454 38.0719 89.7631 38.0017C89.7671 37.988 89.771 37.9802 89.771 37.9783C89.9088 37.9705 90.0467 37.9627 90.1845 37.9529C90.4582 37.9354 90.7358 37.9315 91.0272 37.9685C91.171 37.988 91.3127 38.0212 91.4466 38.068C91.5766 38.1148 91.6987 38.1772 91.809 38.2571C91.9153 38.3351 92.0098 38.4346 92.0866 38.5516C92.1496 38.651 92.2008 38.7563 92.2402 38.8655C92.2796 38.9786 92.3091 39.0957 92.3307 39.2146C92.3524 39.3375 92.3682 39.4603 92.376 39.5832C92.3859 39.7119 92.3938 39.8367 92.4016 39.9576C92.4194 40.3086 92.439 40.6596 92.4607 41.0125C92.4824 41.3635 92.4942 41.7146 92.4942 42.0578C92.4942 42.1533 92.4883 42.2469 92.4765 42.3405C92.4627 42.4263 92.441 42.5121 92.4115 42.5921Z" fill="white"/>
<path d="M101.097 42.6233C101.018 42.633 100.939 42.6447 100.861 42.6545C101.032 41.9798 101.164 41.2914 101.254 40.605C101.353 39.8484 101.404 39.0762 101.404 38.3078C101.404 37.5317 101.353 36.7517 101.252 35.9892C101.162 35.2989 101.026 34.6047 100.853 33.9241C100.931 33.9358 101.01 33.9495 101.089 33.9631L101.743 34.0743L101.701 33.8715C101.692 33.8188 101.682 33.7701 101.676 33.7213C101.668 33.6609 101.652 33.6043 101.632 33.5497C101.609 33.4873 101.573 33.4327 101.528 33.3879C101.473 33.3333 101.4 33.3021 101.31 33.2904C100.473 33.1851 99.626 33.1032 98.7931 33.0466C97.9583 32.9881 97.1116 32.9472 96.2728 32.9218L96.068 32.916L96.131 33.109C96.1467 33.1597 96.1625 33.2085 96.1743 33.2572C96.1881 33.3138 96.2038 33.3703 96.2235 33.4288L96.255 33.5185L96.3515 33.5244C96.5169 33.5361 96.6784 33.5439 96.8379 33.5517L97.3183 33.5731C97.3675 33.577 97.3892 33.5829 97.3892 33.577C97.3912 33.5829 97.3951 33.5926 97.3971 33.6082C97.403 33.6472 97.4148 33.694 97.4305 33.7506C97.6353 34.4955 97.7889 35.256 97.8854 36.0107C97.9819 36.7634 98.0331 37.5395 98.0331 38.3156C98.0331 39.1132 97.9799 39.9147 97.8736 40.6966C97.7712 41.4454 97.6156 42.206 97.4089 42.9587C97.2789 42.9665 97.1509 42.9743 97.0249 42.9821C96.8654 42.9918 96.704 42.9996 96.5366 43.0055C96.4421 43.0113 96.3712 43.0347 96.318 43.0776C96.2708 43.1147 96.2334 43.1654 96.2078 43.2239C96.1881 43.2707 96.1723 43.3233 96.1605 43.3818C96.1526 43.4247 96.1408 43.4696 96.1271 43.5164L96.0739 43.7016L96.2688 43.6958C97.1411 43.6704 98.0173 43.6256 98.8719 43.5593C99.7284 43.4949 100.601 43.4072 101.465 43.298L101.564 43.2863L101.745 42.5414L101.54 42.5667C101.392 42.5843 101.243 42.6038 101.097 42.6233Z" fill="white"/>
<path d="M112.96 42.7637C113.1 42.0714 113.208 41.3694 113.279 40.6752C113.358 39.9127 113.397 39.1346 113.397 38.3605C113.397 37.5746 113.356 36.7849 113.273 36.0146C113.199 35.3145 113.088 34.6086 112.947 33.9105C113.053 33.93 113.161 33.9514 113.268 33.9729C113.443 34.008 113.618 34.0489 113.795 34.0918L114 34.1425L113.972 33.9358C113.965 33.8851 113.961 33.8344 113.957 33.7857C113.953 33.7233 113.943 33.6648 113.927 33.6121C113.907 33.5458 113.874 33.4873 113.825 33.4405C113.774 33.3898 113.703 33.3547 113.614 33.3391C112.777 33.1987 111.929 33.0973 111.094 33.0388C110.261 32.9823 109.412 32.9472 108.569 32.9355L108.491 32.9335L108.447 32.9998C108.39 33.0856 108.365 33.1617 108.365 33.2338C108.365 33.3177 108.4 33.3957 108.465 33.4483C108.514 33.4893 108.577 33.5185 108.652 33.538C108.715 33.5536 108.784 33.5653 108.861 33.5712C109.022 33.5829 109.203 33.5809 109.365 33.5712C109.392 33.5692 109.418 33.5673 109.44 33.5673C109.544 34.2576 109.615 34.9655 109.652 35.6714C109.69 36.3948 109.708 37.1281 109.709 37.8496C109.576 37.9315 109.43 38.0173 109.27 38.107C109.087 38.2103 108.894 38.3078 108.693 38.3995C108.497 38.4872 108.294 38.5633 108.087 38.6218C107.776 38.7115 107.467 38.7407 107.173 38.6686C107.073 38.6432 106.984 38.6042 106.906 38.5516C106.827 38.4989 106.764 38.4326 106.709 38.3527C106.659 38.2786 106.63 38.185 106.62 38.0758C106.612 37.9919 106.608 37.9061 106.604 37.8223C106.6 37.7384 106.598 37.6507 106.598 37.5629C106.598 37.325 106.606 37.0813 106.622 36.8414C106.638 36.5976 106.652 36.3578 106.663 36.1238C106.681 35.7611 106.705 35.3984 106.732 35.0376C106.76 34.6769 106.795 34.3142 106.839 33.9534C106.843 33.8988 106.845 33.8442 106.845 33.7857C106.845 33.7408 106.848 33.7018 106.856 33.6648C106.86 33.6433 106.868 33.6258 106.868 33.6219L106.906 33.618C107.045 33.6063 107.183 33.6004 107.319 33.5965C107.459 33.5926 107.603 33.5868 107.75 33.579L107.878 33.5731L107.886 33.4464C107.89 33.384 107.892 33.3216 107.894 33.2611C107.896 33.2026 107.898 33.1441 107.902 33.0837L107.912 32.9296L107.756 32.9316C106.892 32.9452 106.018 32.9823 105.159 33.0369C104.299 33.0934 103.422 33.2046 102.556 33.3664L102.465 33.384L102.444 33.4737C102.424 33.5497 102.408 33.6277 102.394 33.7057C102.383 33.7798 102.369 33.852 102.353 33.9241L102.312 34.1269L102.519 34.0938C102.694 34.0645 102.869 34.0372 103.044 34.0099C103.155 33.9924 103.263 33.9768 103.371 33.9592C103.271 34.5053 103.178 35.061 103.097 35.6129C103.007 36.2369 102.962 36.8687 102.962 37.4908C102.962 37.7131 102.977 37.9315 103.011 38.144C103.044 38.3585 103.101 38.5652 103.184 38.7602C103.269 38.9572 103.383 39.1425 103.527 39.3121C103.67 39.4818 103.856 39.6358 104.074 39.7684C104.328 39.9283 104.59 40.0434 104.854 40.1077C105.456 40.2598 106.149 40.2345 106.827 40.0512C107.203 39.9478 107.577 39.8172 107.941 39.6592C108.302 39.5032 108.656 39.3277 108.993 39.1405C109.247 39.0001 109.485 38.8636 109.711 38.7329C109.702 39.4506 109.682 40.1623 109.65 40.8585C109.619 41.5976 109.55 42.3542 109.448 43.1049C109.343 43.1088 109.241 43.1127 109.138 43.1147C108.995 43.1186 108.849 43.1244 108.703 43.1303C108.605 43.1342 108.536 43.1381 108.495 43.142C108.384 43.1517 108.329 43.2063 108.304 43.2512C108.276 43.2999 108.264 43.3604 108.27 43.4384C108.274 43.4832 108.272 43.5476 108.264 43.6314L108.252 43.7855L108.408 43.7835C109.308 43.7757 110.216 43.7445 111.106 43.688C112.001 43.6314 112.899 43.5183 113.776 43.3526L113.872 43.335L113.933 43.0152C113.949 42.9392 113.961 42.8612 113.972 42.7832L114 42.5921L113.281 42.711C113.175 42.7305 113.069 42.7481 112.96 42.7637Z" fill="white"/>
<path d="M5.8585 20.2914C6.08494 20.8628 6.38226 21.3873 6.74457 21.8495C7.10687 22.3136 7.53218 22.7173 8.00869 23.0449C8.4852 23.3744 9.02274 23.6318 9.60755 23.8132C10.1904 23.9926 10.8284 24.0842 11.5037 24.0842C11.805 24.0842 12.1082 24.0608 12.4036 24.0121C12.6989 23.9633 12.9963 23.8892 13.2837 23.7859C13.5555 23.6864 13.8213 23.5714 14.0753 23.4388C14.3273 23.3101 14.5813 23.1853 14.8353 23.0663C14.8885 23.0429 14.9476 23.0215 15.0106 23.0059C15.1209 22.9786 15.2311 22.9747 15.3296 23.002C15.369 23.0117 15.4005 23.0273 15.428 23.0488C15.4536 23.0683 15.4753 23.0956 15.493 23.1307C15.5088 23.1619 15.5186 23.2048 15.5186 23.2574V23.429L15.8809 23.3608C15.9459 23.3471 16.0128 23.3335 16.0739 23.3198C16.1388 23.3081 16.1881 23.2906 16.2255 23.2652C16.2708 23.236 16.3062 23.1931 16.3259 23.1443C16.3417 23.1053 16.3495 23.0644 16.3515 23.0176C16.3535 22.9883 16.3574 22.9552 16.3613 22.922C16.4677 22.378 16.5543 21.8202 16.6193 21.2645C16.6823 20.7146 16.7374 20.153 16.7808 19.5952C16.7867 19.4841 16.7965 19.3729 16.8083 19.2618C16.8201 19.1428 16.828 19.0258 16.828 18.9049C16.828 18.7879 16.765 18.6924 16.6508 18.6319C16.5819 18.5949 16.4756 18.55 16.3318 18.4935L16.1881 18.4369L16.1408 18.5832C15.999 19.0219 15.8455 19.4548 15.682 19.8683C15.6131 20.0438 15.5383 20.2271 15.4576 20.4143C15.3768 20.5995 15.2941 20.7809 15.2075 20.9564C15.1228 21.128 15.0322 21.2957 14.9377 21.4536C14.8472 21.6077 14.7546 21.7422 14.6621 21.8573C14.4868 22.0737 14.2899 22.2824 14.0753 22.4774C13.8626 22.6705 13.6283 22.8421 13.3783 22.9883C13.1321 23.1346 12.8683 23.2516 12.5946 23.3393C12.0137 23.5246 11.3659 23.5031 10.8855 23.3257C10.6275 23.2301 10.3912 23.0995 10.1864 22.9337C9.98166 22.766 9.80051 22.5691 9.6489 22.3468C9.49531 22.1186 9.36339 21.8729 9.25903 21.6155C9.1527 21.3542 9.06803 21.0812 9.00502 20.8004C8.94201 20.5196 8.90066 20.2388 8.88097 19.9677C8.85341 19.6186 8.83568 19.2598 8.82584 18.9049C8.81599 18.5481 8.81206 18.1912 8.81206 17.8305C8.81206 17.4873 8.81206 17.1382 8.81009 16.7872C8.80812 16.4401 8.81403 16.0852 8.82584 15.7361C8.83765 15.3871 8.86128 15.0341 8.89279 14.6909C8.92626 14.3477 8.97549 14.0025 9.04243 13.6632C9.08772 13.4331 9.14285 13.1952 9.21177 12.9554C9.27872 12.7194 9.36339 12.4854 9.46184 12.2631C9.56029 12.0408 9.6804 11.8282 9.81823 11.6293C9.95213 11.4363 10.1156 11.2627 10.3006 11.1145C10.531 10.9312 10.789 10.7986 11.0686 10.7167C11.7046 10.5334 12.4115 10.5666 12.9766 10.7343C13.2877 10.8279 13.5811 10.9585 13.8429 11.1243C14.1068 11.292 14.347 11.4889 14.5577 11.7151C14.7704 11.9413 14.9653 12.1929 15.1346 12.462C15.304 12.7311 15.4556 13.0197 15.5836 13.32C15.7116 13.6203 15.8218 13.9284 15.9104 14.2307L15.9321 14.3223C15.94 14.3574 15.9498 14.3906 15.9616 14.4198C15.9754 14.4549 15.9971 14.49 16.0227 14.5232C16.0502 14.5583 16.0876 14.5895 16.129 14.6168C16.1684 14.646 16.2078 14.6753 16.2452 14.7045C16.2846 14.7357 16.322 14.7669 16.3613 14.8001L16.6193 15.0185L16.5976 14.6831C16.5523 13.9889 16.4913 13.2986 16.4184 12.6258C16.3456 11.9491 16.2412 11.2627 16.1054 10.5841L16.0877 10.4944L15.7372 10.4125C15.6486 10.393 15.5599 10.3735 15.4694 10.3579L15.2646 10.3248L15.304 10.5276C15.3059 10.5354 15.3059 10.5471 15.3059 10.5627C15.3059 10.6368 15.2784 10.6524 15.2646 10.6602C15.1563 10.7206 14.9417 10.7167 14.6857 10.6699C14.5518 10.6446 14.414 10.6134 14.2761 10.5724C14.1344 10.5334 13.9926 10.4886 13.8508 10.4418C13.7091 10.395 13.5791 10.3482 13.459 10.3053L13.1439 10.1902C13.0455 10.1551 12.9766 10.1317 12.9333 10.1219C12.1515 9.93865 11.3009 9.96985 10.5468 10.1629C10.1274 10.2702 9.71978 10.4242 9.34173 10.6173C8.96367 10.8103 8.60137 11.0443 8.26466 11.3115C7.92993 11.5767 7.61488 11.8731 7.3274 12.189C7.04189 12.5049 6.7741 12.8442 6.53388 13.1991C6.29366 13.5521 6.07903 13.9206 5.89394 14.2931C5.6675 14.7455 5.50014 15.2194 5.39578 15.701C5.29142 16.1827 5.24022 16.678 5.24022 17.1772C5.24022 17.7115 5.29536 18.2478 5.40365 18.7704C5.51195 19.2988 5.66553 19.8078 5.8585 20.2914Z" fill="white"/>
<path d="M23.7236 23.6669C24.0957 23.6572 24.4679 23.6416 24.8321 23.6162C24.9129 23.6104 24.9798 23.587 25.029 23.5421C25.0743 23.5031 25.1058 23.4563 25.1255 23.3998C25.1413 23.3569 25.1531 23.3081 25.159 23.2535C25.1629 23.2165 25.1688 23.1794 25.1767 23.1424L25.2181 22.9513L25.0231 22.9688C24.8656 22.9844 24.7101 22.9981 24.5525 23.0098C24.4561 23.0176 24.3576 23.0234 24.2611 23.0312C24.3556 22.4072 24.4186 21.7754 24.4502 21.1494C24.4836 20.4689 24.5013 19.7746 24.5013 19.0863C24.5013 18.4057 24.4836 17.7174 24.4482 17.0368C24.4167 16.4167 24.3497 15.7888 24.2532 15.1667C24.5584 15.194 24.84 15.274 25.094 15.4027C25.3992 15.5606 25.6729 15.7732 25.9053 16.0384C26.1416 16.3075 26.3424 16.6253 26.5039 16.9822C26.6673 17.343 26.7894 17.731 26.8681 18.1347C26.8839 18.2068 26.9134 18.2673 26.9607 18.3121C26.9981 18.3492 27.0414 18.3784 27.0926 18.4038C27.1359 18.4252 27.1792 18.4428 27.2285 18.4584C27.2639 18.4701 27.2993 18.4837 27.3348 18.5013L27.5573 18.6027L27.5376 18.3609C27.4943 17.811 27.4313 17.263 27.3525 16.7326C27.2718 16.1983 27.1615 15.6542 27.0237 15.116C27.006 15.0517 26.9843 15.0049 26.9587 14.9698C26.9272 14.9288 26.8878 14.8995 26.8366 14.882C26.8032 14.8703 26.7638 14.8625 26.7185 14.8605C26.6929 14.8586 26.6633 14.8566 26.6299 14.8508C25.9702 14.7455 25.3087 14.6655 24.6667 14.6168C23.3337 14.5134 21.9573 14.5173 20.6322 14.6285C19.943 14.687 19.2499 14.7747 18.5686 14.8917L18.48 14.9073L18.4564 14.9932C18.3186 15.4846 18.2083 15.9838 18.1276 16.4791C18.0488 16.9724 17.9838 17.4795 17.9366 17.9767C17.9307 18.0138 17.9228 18.0547 17.9149 18.0976C17.9031 18.1522 17.8992 18.2049 17.8992 18.2556C17.8992 18.3628 17.9445 18.4272 17.9799 18.4603C18.0193 18.4974 18.0685 18.5247 18.1236 18.5442C18.1689 18.5598 18.2162 18.5695 18.2674 18.5773L18.5253 18.6183L18.5489 18.4759C18.6139 18.0645 18.7183 17.6628 18.8541 17.2825C18.99 16.9081 19.1889 16.5532 19.4468 16.2295C19.5748 16.0696 19.7087 15.9253 19.8485 15.8024C19.9863 15.6815 20.134 15.5782 20.2876 15.4943C20.4412 15.4105 20.6086 15.3461 20.7838 15.2993C20.9079 15.2662 21.0417 15.2428 21.1815 15.2272C21.0851 15.8531 21.0201 16.4849 20.9906 17.105C20.9571 17.7856 20.9394 18.4798 20.9394 19.1682C20.9394 19.8527 20.9571 20.543 20.9925 21.2177C21.024 21.8397 21.091 22.4696 21.1914 23.0897C21.0929 23.0839 20.9945 23.08 20.896 23.0722C20.7385 23.0624 20.5849 23.0488 20.4294 23.0332L20.2384 23.0156L20.2738 23.2009C20.2935 23.3023 20.3171 23.4017 20.3447 23.4992L20.3723 23.5948L20.4727 23.6006C20.833 23.624 21.1914 23.6435 21.5439 23.6552C21.8963 23.6669 22.2547 23.6728 22.615 23.6728C22.9852 23.6786 23.3554 23.6747 23.7236 23.6669Z" fill="white"/>
<path d="M36.7074 23.7586C36.9476 23.6806 37.18 23.5733 37.3946 23.4427C37.6092 23.312 37.814 23.158 38.003 22.9883C38.1901 22.8187 38.3594 22.6373 38.5071 22.4521L38.5819 22.3565L38.4008 22.1595C38.3673 22.1205 38.3319 22.0835 38.2984 22.0464L38.1802 21.9197L38.0779 22.0601C38.07 22.0718 38.0424 22.1049 37.9637 22.1713C37.9006 22.2259 37.8278 22.2805 37.7471 22.337C37.6683 22.3916 37.5876 22.4384 37.5029 22.4755C37.3808 22.532 37.2863 22.5242 37.2765 22.5106C37.2686 22.4989 37.2469 22.454 37.2469 22.3156C37.2469 22.2512 37.2528 22.1849 37.2646 22.1166C37.2784 22.0425 37.2922 21.9665 37.3099 21.8904L37.3592 21.6603C37.3749 21.5823 37.3867 21.5063 37.3985 21.4322C37.4419 21.0597 37.4734 20.6834 37.495 20.3148C37.5167 19.9404 37.5265 19.5621 37.5265 19.1916C37.5265 18.7431 37.5108 18.2887 37.4832 17.8402C37.4537 17.3936 37.4104 16.9412 37.3513 16.4908L37.3139 16.2275C37.3001 16.1359 37.2824 16.0442 37.2607 15.9545C37.2371 15.8648 37.2095 15.7751 37.176 15.6893C37.1406 15.6016 37.0973 15.5119 37.0421 15.4241C36.9319 15.2564 36.798 15.1082 36.6444 14.9873C36.4948 14.8664 36.3274 14.765 36.1482 14.6831C35.973 14.6031 35.7839 14.5388 35.589 14.4881C35.396 14.4393 35.1991 14.4023 35.0003 14.3769C34.8014 14.3516 34.6005 14.334 34.4056 14.3262C33.9074 14.3067 33.4546 14.3126 32.9958 14.3418C32.7122 14.3594 32.4267 14.3964 32.1471 14.4471C31.8675 14.4998 31.5879 14.5719 31.3182 14.6655C31.0445 14.7591 30.7806 14.8839 30.5305 15.0361C30.3494 15.1472 30.1682 15.2779 29.991 15.4261C29.8118 15.5762 29.6484 15.7439 29.5066 15.9253C29.3629 16.1086 29.2448 16.3094 29.1561 16.5181C29.0656 16.7345 29.0203 16.9627 29.0203 17.1967C29.0203 17.3995 29.0557 17.5945 29.1227 17.7739C29.1916 17.9533 29.2861 18.1113 29.4023 18.2439C29.5204 18.3784 29.6642 18.4857 29.8276 18.5637C30.1781 18.7294 30.6172 18.7197 30.9893 18.5305C31.1823 18.433 31.3536 18.3004 31.4973 18.1386C31.6391 17.9787 31.7553 17.7915 31.8399 17.5848C31.9266 17.3761 31.9699 17.1577 31.9699 16.9393C31.9699 16.8008 31.9502 16.6643 31.9108 16.5337C31.8715 16.405 31.8104 16.2782 31.7277 16.1593C31.6844 16.1008 31.6352 16.0423 31.58 15.9818C31.5308 15.9292 31.4836 15.8746 31.4402 15.8219C31.4009 15.7732 31.3654 15.7225 31.3378 15.6737C31.3182 15.6367 31.3083 15.6016 31.3083 15.5626C31.3083 15.5021 31.3418 15.4339 31.4048 15.3617C31.4875 15.2662 31.5938 15.1901 31.7159 15.1336C31.8498 15.0731 31.9896 15.0263 32.1314 14.9951C32.279 14.9639 32.4228 14.9425 32.5606 14.9327C32.7024 14.9229 32.8245 14.9171 32.9249 14.9171C33.0785 14.9171 33.2321 14.9327 33.3837 14.9659C33.5274 14.9971 33.6613 15.0536 33.7795 15.1316C33.8523 15.1823 33.9133 15.2428 33.9626 15.3071C34.0118 15.3734 34.0551 15.4475 34.0866 15.5255C34.1181 15.6055 34.1418 15.6913 34.1555 15.7771C34.1693 15.8707 34.1811 15.9643 34.187 16.054L34.2146 16.6214C34.2225 16.8145 34.2304 17.0075 34.2363 17.1986C34.2422 17.3898 34.2481 17.5789 34.252 17.7642C34.256 17.9397 34.2579 18.1054 34.2599 18.2634C34.254 18.2653 34.2481 18.2673 34.2382 18.2673C33.5786 18.394 32.9131 18.5403 32.2594 18.7002C31.6056 18.862 30.946 19.0356 30.3002 19.215C30.0658 19.2793 29.8355 19.3534 29.6169 19.4334C29.3885 19.5172 29.1817 19.6284 29.0026 19.7629C28.8175 19.9014 28.6678 20.0769 28.5556 20.2836C28.4434 20.4942 28.3863 20.7555 28.3863 21.0656C28.3863 21.2723 28.4099 21.477 28.4552 21.6759C28.5005 21.8748 28.5694 22.0679 28.656 22.2512C28.7427 22.4345 28.8529 22.6081 28.9809 22.7719C29.1089 22.9337 29.2566 23.08 29.422 23.2067C29.737 23.4505 30.0816 23.6318 30.4439 23.7469C30.8023 23.86 31.1764 23.9165 31.5564 23.9165C31.8203 23.9165 32.0861 23.8892 32.346 23.8346C32.6059 23.78 32.8599 23.7001 33.106 23.5948C33.3522 23.4914 33.5885 23.3588 33.809 23.2048C33.9685 23.0917 34.1201 22.9688 34.2619 22.8343C34.319 22.9532 34.3859 23.0644 34.4627 23.1638C34.5828 23.3198 34.7226 23.4524 34.8801 23.5597C35.0357 23.665 35.207 23.7469 35.3901 23.8034C35.8017 23.9204 36.2723 23.9009 36.7074 23.7586ZM33.4546 22.6705C33.3167 22.7446 33.173 22.8031 33.0273 22.8479C32.8067 22.9142 32.5488 22.9279 32.3184 22.8928C32.2416 22.8811 32.1688 22.8596 32.1018 22.8304C32.0369 22.8031 31.9778 22.7641 31.9266 22.7173C31.8774 22.6724 31.838 22.6178 31.8045 22.5437C31.7139 22.3585 31.649 22.1595 31.6135 21.9548C31.5761 21.7461 31.5584 21.5316 31.5584 21.321C31.5584 21.1572 31.5702 20.9876 31.5918 20.8179C31.6115 20.66 31.6588 20.5137 31.7336 20.3792C31.8045 20.2466 31.899 20.1257 32.0093 20.0204C32.1294 19.9073 32.2534 19.8019 32.3795 19.7064C32.5232 19.5952 32.6788 19.4958 32.8382 19.4158C33.0017 19.332 33.171 19.2598 33.3423 19.1994C33.5156 19.137 33.6948 19.0843 33.8759 19.0375C34.002 19.0063 34.128 18.9751 34.254 18.9478V19.1058C34.254 19.6225 34.2481 20.1393 34.2382 20.6522C34.2284 21.1455 34.2107 21.6447 34.189 22.1342C34.0787 22.2337 33.9685 22.3253 33.8562 22.4131C33.7263 22.5106 33.5924 22.5964 33.4546 22.6705Z" fill="white"/>
<path d="M48.6043 21.284C48.7914 20.97 48.9233 20.6307 48.9981 20.2778C49.071 19.9287 49.1084 19.5738 49.1084 19.2169C49.1084 18.8289 49.069 18.4291 48.9922 18.0294C48.9154 17.6296 48.7973 17.2337 48.6417 16.8554C48.4862 16.4752 48.2873 16.1144 48.051 15.7829C47.8128 15.4475 47.5292 15.1511 47.2083 14.8976C46.8854 14.646 46.5172 14.4432 46.1115 14.297C45.7039 14.1507 45.2491 14.0766 44.7568 14.0766C44.1464 14.0766 43.6266 14.217 43.2111 14.492C42.967 14.6538 42.7543 14.8527 42.5732 15.0887C42.5771 15.0517 42.581 15.0146 42.585 14.9795C42.6086 14.7396 42.6381 14.4998 42.6716 14.256L42.7031 14.0318L42.4865 14.102C42.1439 14.2112 41.7934 14.2989 41.4469 14.3652C41.0925 14.4315 40.7361 14.4939 40.3777 14.5544C40.1296 14.5973 39.8815 14.6441 39.6354 14.6987C39.3912 14.7513 39.1451 14.8079 38.9009 14.8703L38.8025 14.8956L38.7926 14.9951C38.7867 15.0556 38.7788 15.116 38.771 15.1745C38.7611 15.2389 38.7532 15.3032 38.7473 15.3695L38.7276 15.5723L38.9265 15.5197C39.0742 15.4807 39.2199 15.4456 39.3656 15.4144C39.4463 15.3968 39.5271 15.3793 39.6098 15.3617C39.3558 17.185 39.2258 19.0414 39.2258 20.8862C39.2258 21.8904 39.2652 22.9045 39.34 23.897C39.4109 24.8194 39.5172 25.7515 39.6551 26.6758C39.5763 26.6544 39.4995 26.6329 39.4207 26.6115C39.2731 26.5725 39.1293 26.5276 38.9856 26.4808L38.767 26.4087L38.7985 26.6349C38.8044 26.6739 38.8064 26.7109 38.8064 26.748C38.8064 26.8026 38.8123 26.8533 38.8241 26.9001C38.8379 26.9566 38.8615 27.0054 38.895 27.0483C38.9364 27.101 38.9974 27.138 39.0781 27.1575C39.789 27.3428 40.5195 27.4734 41.25 27.5436C41.9766 27.6138 42.7149 27.6567 43.4474 27.6684L43.601 27.6704L43.5734 27.099H43.032C42.902 27.099 42.7681 27.0951 42.6283 27.0893C42.6204 27.0893 42.6086 27.0932 42.6106 27.0873C42.6126 27.0502 42.6106 27.0054 42.6066 26.9488C42.5259 26.2254 42.4668 25.4922 42.4314 24.7687C42.4058 24.2285 42.3841 23.6806 42.3704 23.1307C42.5239 23.3335 42.7071 23.5012 42.9178 23.6338C43.2801 23.8619 43.7073 23.977 44.1858 23.977C44.4162 23.977 44.6505 23.9477 44.8829 23.8912C45.1113 23.8346 45.3377 23.7625 45.5582 23.6728C45.7768 23.5831 45.9914 23.4817 46.1982 23.3705C46.4029 23.2594 46.5999 23.1443 46.783 23.0293C46.9582 22.9201 47.1335 22.8011 47.3048 22.6744C47.478 22.5476 47.6434 22.4111 47.799 22.2688C47.9546 22.1264 48.1022 21.9704 48.2381 21.8085C48.368 21.6447 48.4941 21.4692 48.6043 21.284ZM44.2567 14.7026C44.4497 14.7026 44.621 14.7318 44.7627 14.7864C44.9045 14.843 45.0305 14.919 45.1349 15.0146C45.2392 15.1102 45.3298 15.2252 45.4007 15.3539C45.4755 15.4904 45.5405 15.6347 45.5917 15.7849C45.6449 15.937 45.6882 16.0949 45.7217 16.2568C45.7571 16.4225 45.7866 16.5824 45.8142 16.7365C45.891 17.2123 45.9363 17.6979 45.9461 18.1756C45.956 18.6339 45.9639 19.0941 45.9698 19.5543L45.9678 19.5816C45.9619 19.6459 45.9579 19.6986 45.956 19.7434L45.952 19.8605C45.9501 19.9014 45.9501 19.9307 45.9501 19.9599L45.9343 20.3265C45.9205 20.5683 45.8949 20.814 45.8575 21.0519C45.8201 21.2879 45.767 21.5219 45.698 21.7461C45.6311 21.9626 45.5366 22.1595 45.4165 22.3351C45.3397 22.4501 45.2471 22.5535 45.1388 22.6412C45.0286 22.7329 44.9104 22.8109 44.7864 22.8752C44.6623 22.9396 44.5284 22.9883 44.3886 23.0215C44.0637 23.0995 43.7132 23.0819 43.4789 23C43.345 22.9532 43.2269 22.8889 43.1284 22.8089C43.032 22.7309 42.9493 22.6354 42.8823 22.5242C42.8134 22.4092 42.7524 22.2844 42.7051 22.1537C42.6559 22.023 42.6165 21.8826 42.585 21.7403C42.5535 21.5901 42.5239 21.4419 42.4964 21.2957C42.4491 21.0402 42.4156 20.7809 42.396 20.5235C42.3763 20.2661 42.3664 20.0028 42.3664 19.7376C42.3664 19.5114 42.3723 19.2852 42.3841 19.057C42.396 18.8289 42.4117 18.6027 42.4294 18.3765C42.4452 18.1756 42.4649 17.9416 42.4924 17.6764C42.52 17.4151 42.5594 17.1421 42.6145 16.8652C42.6677 16.5902 42.7386 16.3172 42.8272 16.0501C42.9118 15.7907 43.0241 15.5548 43.156 15.352C43.284 15.155 43.4415 14.9932 43.6246 14.8722C43.8038 14.7591 44.0086 14.7026 44.2567 14.7026Z" fill="white"/>
<path d="M49.6794 22.612L49.4628 22.5632L49.5062 22.7777C49.514 22.8187 49.5199 22.8577 49.5258 22.8967C49.5317 22.9493 49.5396 22.9981 49.5534 23.0429C49.5711 23.1014 49.5987 23.1521 49.64 23.1931C49.6853 23.2399 49.7483 23.273 49.831 23.2867C50.53 23.4017 51.2369 23.4836 51.934 23.5324C52.633 23.5811 53.3418 23.6104 54.0448 23.6221L54.2102 23.624L54.1905 23.4622C54.1846 23.4193 54.1806 23.3764 54.1806 23.3315C54.1787 23.2808 54.1747 23.2282 54.1688 23.1716L54.1531 23.0371L54.0172 23.0468C53.9739 23.0488 53.9325 23.0507 53.8912 23.0507H53.4816C53.4324 23.0507 53.3832 23.0507 53.334 23.0488C53.33 23.0234 53.33 22.9981 53.33 22.9747C53.33 22.9337 53.334 22.8947 53.3438 22.8557C53.3536 22.8109 53.3733 22.7582 53.397 22.6978C53.8617 21.5862 54.3323 20.4767 54.8029 19.3729C55.1947 18.4545 55.5846 17.5204 55.9626 16.5902C55.9902 16.9354 56.0119 17.2805 56.0296 17.6218C56.0571 18.1561 56.0709 18.706 56.0709 19.2559C56.0709 19.8488 56.0532 20.4572 56.0178 21.0617C55.9823 21.6662 55.9173 22.2707 55.8209 22.8635C55.813 22.922 55.8051 22.9669 55.811 22.9942C55.7815 22.9981 55.7401 23.002 55.6771 23.0039C55.6003 23.0098 55.5255 23.0137 55.4507 23.0156C55.3719 23.0176 55.2932 23.0195 55.2183 23.0215C55.1337 23.0215 55.0667 23.0449 55.0195 23.0917C54.9801 23.1307 54.9545 23.1775 54.9407 23.2321C54.9289 23.2769 54.9249 23.3257 54.9308 23.3783C54.9328 23.4115 54.9348 23.4427 54.9348 23.4739V23.6182L55.0805 23.6162C55.813 23.6045 56.5474 23.5714 57.2602 23.5207C57.973 23.47 58.7035 23.3803 59.4321 23.2574L59.5246 23.2418L59.5463 23.1502C59.562 23.0839 59.5758 23.0176 59.5876 22.9532C59.5975 22.8928 59.6093 22.8304 59.6211 22.768L59.6585 22.5671L59.4557 22.6003C59.31 22.6237 59.1643 22.6471 59.0166 22.6705C58.9378 22.6822 58.8591 22.6939 58.7803 22.7056C58.8965 22.14 58.9871 21.5648 59.0481 20.9934C59.117 20.3577 59.1525 19.7064 59.1525 19.059C59.1525 17.8266 59.0245 16.5922 58.7744 15.3851C58.8512 15.4007 58.928 15.4144 59.0048 15.43C59.1525 15.4612 59.3001 15.4924 59.4478 15.5255L59.6664 15.5743L59.6211 15.3578C59.6132 15.3208 59.6073 15.2857 59.6053 15.2486C59.6014 15.194 59.5935 15.1433 59.5797 15.0985C59.562 15.04 59.5325 14.9873 59.4892 14.9444C59.4419 14.8976 59.3809 14.8683 59.2982 14.8527C58.5933 14.7377 57.8824 14.6558 57.1893 14.607C56.5002 14.5583 55.7913 14.529 55.0805 14.5154L54.9151 14.5134L54.9368 14.6772C54.9427 14.7221 54.9466 14.765 54.9466 14.8059C54.9486 14.8566 54.9525 14.9093 54.9584 14.962L54.9742 15.0868H55.5038C55.5964 15.0868 55.6889 15.0868 55.7834 15.0887C55.7815 15.1394 55.7736 15.1882 55.7598 15.2369C55.7421 15.3013 55.7185 15.3656 55.6929 15.43C55.6653 15.4963 55.6358 15.5606 55.6043 15.625C55.5688 15.6952 55.5373 15.7634 55.5097 15.8317C55.0746 16.8476 54.6394 17.8656 54.2062 18.8854C53.8538 19.7161 53.5013 20.5586 53.1607 21.3951C53.1351 21.0636 53.1154 20.7321 53.0996 20.4026C53.074 19.8761 53.0603 19.3417 53.0603 18.8133C53.0603 18.2302 53.078 17.6335 53.1154 17.0387C53.1528 16.444 53.2178 15.8512 53.3103 15.2779L53.3261 15.1472C53.3536 15.1414 53.395 15.1394 53.4757 15.1355L53.9207 15.118C54.0704 15.1102 54.1354 15.0419 54.1629 14.9853C54.1866 14.9346 54.2003 14.8761 54.2003 14.8098C54.2003 14.7923 54.2003 14.7728 54.1964 14.7572C54.1964 14.7474 54.1944 14.7377 54.1944 14.7279C54.1944 14.7123 54.1944 14.7006 54.1964 14.6928L54.2318 14.5193L54.0527 14.5232C53.3261 14.5349 52.5916 14.5661 51.8729 14.6148C51.1464 14.6636 50.4178 14.7533 49.705 14.8839L49.6105 14.9015L49.4766 15.5684L50.1244 15.4651C50.2012 15.4534 50.28 15.4417 50.3568 15.43C50.1106 16.6253 49.9846 17.85 49.9846 19.0765C49.9846 20.309 50.1126 21.5453 50.3627 22.7543C50.2859 22.7387 50.2091 22.7231 50.1323 22.7075C49.9748 22.6763 49.8271 22.6451 49.6794 22.612Z" fill="white"/>
<path d="M65.0143 23.6611H65.1679L65.1502 23.3588C65.1482 23.312 65.1462 23.2652 65.1462 23.2165V23.0741H65.0025C64.8824 23.0741 64.7662 23.078 64.652 23.0858C64.4846 23.0975 64.3507 23.1053 64.2523 23.0858C64.2326 23.0819 64.2149 23.0741 64.2011 23.0605C64.1853 23.0468 64.1696 23.0234 64.1578 22.9942C64.142 22.9552 64.1302 22.9006 64.1223 22.8265C64.0475 22.261 63.9924 21.6798 63.9609 21.0987C63.9294 20.5274 63.9136 19.9541 63.9136 19.369C63.9293 19.3651 63.949 19.3632 63.9746 19.3593C64.0928 19.3437 64.2109 19.33 64.3291 19.3164C64.4413 19.3027 64.5555 19.2969 64.6697 19.2969C65.0241 19.2969 65.3018 19.3768 65.4987 19.5367C65.6995 19.6986 65.8531 19.9365 65.9535 20.2388C66.0106 20.4123 66.0599 20.5917 66.1032 20.7672C66.1465 20.9466 66.1859 21.126 66.2233 21.3093C66.2587 21.4926 66.2942 21.6759 66.3276 21.8592C66.3611 22.0445 66.3966 22.2278 66.434 22.415C66.4753 22.612 66.5245 22.7914 66.5816 22.9493C66.6427 23.1209 66.7313 23.2691 66.8475 23.392C66.9636 23.5168 67.1172 23.6123 67.3043 23.6806C67.4835 23.7449 67.7119 23.7761 67.9836 23.7761C68.401 23.7761 68.8027 23.6942 69.1827 23.5343C69.5608 23.3744 69.9014 23.1365 70.1909 22.8343C70.2204 22.805 70.2519 22.7699 70.2874 22.7309C70.3228 22.69 70.3563 22.651 70.3878 22.61C70.4193 22.5691 70.4469 22.5281 70.4725 22.4891C70.5079 22.4306 70.5256 22.3799 70.5256 22.3331C70.5256 22.2493 70.4843 22.1771 70.4114 22.1264C70.3858 22.1088 70.3563 22.0835 70.3287 22.0523L70.1968 21.9099L70.1003 22.0796C70.0787 22.1166 70.0452 22.1595 70.0019 22.2122C69.9546 22.2668 69.8995 22.3214 69.8365 22.376C69.7774 22.4287 69.7164 22.4716 69.6533 22.5086C69.5588 22.5632 69.4742 22.5515 69.4505 22.5262C69.421 22.495 69.3934 22.4521 69.3737 22.3975C69.3501 22.337 69.3344 22.2649 69.3245 22.1868C69.3147 22.101 69.3088 22.0172 69.3088 21.9353C69.3088 21.8183 69.3127 21.7032 69.3225 21.5921C69.3324 21.4712 69.3363 21.3639 69.3363 21.2703C69.3363 21.0558 69.3245 20.8374 69.3029 20.621C69.2812 20.3987 69.2359 20.1822 69.1709 19.9775C69.104 19.7669 69.0075 19.5679 68.8834 19.3866C68.7555 19.2013 68.5881 19.0395 68.3813 18.903C68.2455 18.8133 68.0998 18.7392 67.9462 18.6846C67.7985 18.63 67.6449 18.589 67.4913 18.5578C67.3378 18.5286 67.1802 18.5071 67.0247 18.4993C66.7864 18.4837 66.5541 18.4779 66.3178 18.4935C66.3414 18.4759 66.3611 18.4584 66.3749 18.4447C66.5521 18.2751 66.6899 18.0801 66.7884 17.8656C66.8809 17.6589 66.9538 17.4385 67.005 17.2123C67.0542 16.9919 67.0916 16.7638 67.1133 16.5317C67.1349 16.3075 67.1586 16.093 67.1861 15.8843C67.192 15.8375 67.2019 15.781 67.2157 15.7147C67.2295 15.6523 67.2491 15.5938 67.2728 15.5372C67.2944 15.4885 67.322 15.4456 67.3535 15.4144C67.3673 15.4007 67.385 15.389 67.4264 15.389C67.4933 15.389 67.5189 15.4105 67.5347 15.43C67.574 15.4787 67.6036 15.5392 67.6233 15.6074C67.6469 15.6893 67.6666 15.7751 67.6804 15.8609C67.6981 15.9682 67.7217 16.0559 67.7552 16.1281C67.8103 16.2451 67.891 16.3679 67.9993 16.4888C68.1057 16.6097 68.2278 16.7209 68.3656 16.8203C68.5034 16.9198 68.6531 17.0017 68.8086 17.066C69.0961 17.1811 69.3974 17.2025 69.6455 17.0933C69.7518 17.0465 69.8483 16.9802 69.927 16.8944C70.0078 16.8106 70.0688 16.7072 70.1121 16.5902C70.1535 16.4752 70.1751 16.3484 70.1751 16.2119C70.1751 15.9272 70.1121 15.6659 69.99 15.4319C69.8699 15.2018 69.7045 15.001 69.5017 14.8371C69.3009 14.6753 69.0666 14.5485 68.8047 14.4588C68.4306 14.334 68.0151 14.2892 67.6351 14.3594C67.515 14.3808 67.4008 14.4179 67.2925 14.4686C67.1842 14.5193 67.0837 14.5856 66.9951 14.6655C66.9026 14.7474 66.8258 14.8508 66.7667 14.9678C66.7116 15.077 66.6663 15.1921 66.6309 15.3091C66.5974 15.4241 66.5698 15.5411 66.5501 15.6542C66.5304 15.7673 66.5127 15.8824 66.4989 15.9994C66.4852 16.1105 66.4694 16.2197 66.4517 16.327C66.4162 16.559 66.369 16.7911 66.3119 17.0212C66.2568 17.2435 66.178 17.4619 66.0756 17.6686C65.9732 17.8792 65.8413 18.043 65.6798 18.1581C65.5125 18.279 65.3254 18.3706 65.1226 18.435C64.9139 18.4993 64.6914 18.5461 64.463 18.5734C64.2798 18.5949 64.1007 18.6183 63.9254 18.6397C63.9333 18.0781 63.951 17.5126 63.9786 16.9588C64.0081 16.3523 64.0672 15.7381 64.1519 15.1316L64.1538 15.1141H64.1578C64.2661 15.1082 64.3724 15.1004 64.4787 15.0946C64.5811 15.0868 64.6855 15.0829 64.7878 15.0829C64.8075 15.0829 64.8272 15.0829 64.841 15.0848C64.8646 15.0868 64.8863 15.0887 64.906 15.0887C65.0281 15.0887 65.1186 15.0127 65.1364 14.8937C65.1442 14.841 65.1541 14.7513 65.1639 14.6226L65.1757 14.4647L65.0163 14.4686C64.2641 14.49 63.5001 14.529 62.744 14.5836C61.9898 14.6402 61.2318 14.7377 60.4914 14.8722L60.3949 14.8898L60.3752 14.9834C60.3634 15.0458 60.3516 15.1082 60.3398 15.1726C60.328 15.2369 60.3181 15.2993 60.3103 15.3598L60.2807 15.5528L60.4757 15.5197C60.6194 15.4963 60.7651 15.4748 60.9088 15.4553C60.9896 15.4456 61.0703 15.4339 61.1491 15.4222C60.9266 16.6195 60.8143 17.8461 60.8143 19.0648C60.8143 19.72 60.8478 20.3792 60.9108 21.0266C60.9679 21.6018 61.0526 22.1849 61.1609 22.7582C61.0841 22.7407 61.0053 22.7251 60.9285 22.7075C60.7828 22.6744 60.6371 22.6373 60.4914 22.5964L60.2807 22.5379L60.3083 22.7524C60.3142 22.7953 60.3181 22.8362 60.3221 22.8772C60.326 22.9298 60.3339 22.9786 60.3437 23.0234C60.3575 23.0858 60.3871 23.1404 60.4284 23.1833C60.4737 23.2321 60.5367 23.2633 60.6155 23.2769C61.342 23.4193 62.0804 23.5187 62.8109 23.5753C63.5355 23.6279 64.2798 23.6591 65.0143 23.6611Z" fill="white"/>
<path d="M106.522 9.15039C105.109 7.87102 103.051 7.47021 101.294 7C101.001 6.92163 100.644 6.77206 100.372 6.69565C99.0521 6.32144 98.2111 5.96863 97.597 5.54936C96.6214 4.88322 96.8955 4.69316 97.4999 3.5V3C97.6554 2.66693 98.0636 1.89533 97.5 0.999973C96.8645 -0.00902295 94.3852 0.500008 92.5 0.500008L92 0.499972C89.5065 0.499972 88.6122 0.84452 87.5569 1.82609C86.8145 2.51769 87.9222 2.80212 87.9999 3C88.0893 3.27429 87.93 3.80996 87.9999 4C88.169 4.45062 88.0582 5.13363 87.9999 5.5C87.8814 6.23079 86.3461 6.51133 84.9856 7.01877C84.3482 7.25779 83.5708 7.60065 83.0266 7.88278C82.0199 8.40393 81.3412 9.01747 80.696 9.43478L80.3885 9.73913C76.8572 12.002 76.0165 14.2555 76.9999 17.5C76.9999 17.5 77.2235 18 77 18C76.8795 18.4408 76.3703 18.7547 77 21C77.6822 23.4353 79.7304 25.2708 84.8671 26.7657C86.6979 27.2986 91.6149 28 95.6399 28C96.5747 28 97.8043 28.0843 98.5 28C102.142 27.5651 102.491 27.328 103.822 26.3425C104.069 26.1583 104.341 25.9585 104.662 25.7351C106.488 24.4636 107.864 23.1363 108.5 22H108.663V21.6561C109.096 20.8645 109.872 20.4056 110 20C111.322 15.8367 108.772 11.188 106.522 9.15039Z" fill="white"/>
<path d="M96.7071 29C92.5413 29 87.1329 28.2123 85.2388 27.672C79.9244 26.1505 77.2379 24.3678 76.5315 21.8892C75.8819 19.606 76.1754 18.5532 76.3006 18.1025C76.3143 18.0567 76.3437 17.935 76.3437 17.935L76.33 17.8932C75.3125 14.591 76.6509 11.7495 80.306 9.44638L80.6269 9.24298C81.2941 8.81825 82.1786 8.32772 83.2215 7.7973C83.785 7.51215 84.5599 7.11334 85.2193 6.87206C86.6261 6.35561 87.6417 5.87105 87.763 5.12528C87.8237 4.75239 87.9411 4.4812 87.7669 4.02257C87.6945 3.82915 87.6084 3.60382 87.5165 3.32465C87.4362 3.12326 86.8296 2.2698 87.5986 1.56591C88.6885 0.566888 90.4222 0.0225133 93.003 0.0225133L93.185 0.0205192C95.1339 0.0205192 97.4898 -0.202814 98.1472 0.82412C98.7303 1.73739 98.2392 3.02355 98.0787 3.36254L98.0592 3.40043C97.4311 4.61281 97.5739 5.13126 98.5836 5.80924C99.2175 6.23596 100.233 6.53706 101.599 6.91793C101.881 6.99569 102.174 7.07346 102.477 7.15322C104.295 7.63179 106.356 8.17218 107.819 9.47429C110.15 11.5461 111.885 16.0347 110.516 20.2701C110.382 20.6828 110.128 21.3449 109.68 22.1485L109.657 22.2003L109.621 22.2502C108.964 23.4067 107.782 25.0578 105.89 26.3519C105.559 26.5792 105.277 26.7826 105.021 26.9701C103.644 27.9731 103.015 28.4317 99.2469 28.8744C98.5288 28.9561 97.6737 29 96.7071 29ZM89.0055 5.35061C88.7198 7.56998 85.5519 9.87111 83.6891 11.0456C83.5796 11.1154 83.3976 11.255 83.2058 11.4025C82.9828 11.574 82.7284 11.7694 82.5875 11.8532L82.204 12.0785C80.3334 13.1653 78.003 14.5192 77.324 18.1185C77.3122 18.1584 77.0031 19.3887 77.6605 21.7018C78.4237 24.3798 81.617 25.3649 85.6615 26.6111L85.8572 26.671C86.9862 27.0179 91.5199 27.8534 96.0496 27.8534C97.4937 27.8534 98.8164 27.7677 99.9826 27.5982C104.698 26.9122 107.851 22.8583 108.436 21.8095C110.022 18.0108 106.788 13.0177 103.845 10.8681C102.91 10.1842 102.004 9.62385 101.127 9.08147C99.3682 7.99272 97.7089 6.96379 97.0006 5.47025C96.8264 5.15918 96.7501 4.17811 96.7325 4.03653C96.7012 3.76334 97.5876 2.65067 97.5876 2.65067C97.5876 2.65067 96.1436 2.98965 95.6035 2.98965C94.8443 2.98766 94.2201 2.92385 93.5842 2.66463C92.9463 2.4034 92.3436 2.41537 91.6607 2.41537C91.3594 2.41537 89.9878 2.99962 89.6434 2.99962C89.207 2.99962 88.2893 2.79424 88.2893 2.79424C88.2893 2.79424 89.0662 4.7843 89.0055 5.35061ZM101.061 8.03659C101.282 8.17617 101.513 8.31974 101.751 8.46531C102.603 8.99373 103.565 9.58795 104.52 10.2879C106.506 11.7395 109.645 15.3627 109.983 18.6868L110.013 17.5602C110.142 14.2819 108.516 11.6299 107.083 10.3557C105.508 8.95584 103.307 8.34168 101.364 7.80129L100.456 7.6298L101.061 8.03659ZM86.8336 7.02361C85.7261 7.63977 84.6499 8.18016 83.7381 8.64278C82.5269 9.25894 81.39 9.83522 80.7639 10.23C78.2202 11.8333 76.9307 13.584 76.8231 15.5821V16.605L77.1166 15.6618C78.363 13.1094 80.5525 11.8193 82.1512 10.8761C82.4173 10.7206 82.6677 10.573 82.8869 10.4334C84.6342 9.33272 85.9902 8.35165 87.0194 7.27287L87.765 6.57894L86.8336 7.02361ZM91.5903 1.68355C92.4473 1.68355 93.1576 1.69552 93.8444 1.97468C94.6095 2.28775 95.2278 2.1023 95.8109 2.1023C95.8696 2.1023 95.9303 2.10031 95.989 2.09832C96.6386 2.06841 98.3644 1.7673 97.2882 1.08534C96.259 0.433287 94.3219 0.714447 92.8954 0.626709C92.6939 0.614745 89.6845 0.521025 88.577 1.56192C88.2346 1.88495 89.1718 2.01058 89.5729 2.01058C89.8312 2.01058 90.1189 1.96272 90.4261 1.86701C90.8194 1.74338 91.2009 1.68355 91.5903 1.68355Z" fill="#132A3E"/>
<path d="M80.7776 20.3937C80.4195 20.3937 79.9929 20.2681 79.9929 19.6738C79.9929 18.4136 80.4293 16.4495 84.194 13.9729C86.7201 12.3118 88.4009 10.238 89.0759 8.96581C89.0759 8.96781 89.0759 8.96781 89.0799 8.96781C89.0857 8.96781 89.0955 8.96581 89.1112 8.96581C89.1933 8.96581 89.2755 9.01167 89.2873 9.0356C88.7903 10.1822 87.0703 12.7724 84.959 14.6149C82.0846 17.1215 81.4233 18.2042 81.5818 20.1325C81.5544 20.2043 81.2139 20.3937 80.7776 20.3937Z" fill="#132A3E"/>
<path d="M99.4895 20.8224C99.1314 20.8224 98.7929 20.7008 98.6266 20.5113C98.5307 20.4037 98.4916 20.282 98.5053 20.1365C98.611 19.0557 98.5425 17.2192 98.0083 15.604C97.8439 15.1075 97.5661 14.5152 97.2432 13.8273C96.668 12.599 95.9518 11.0715 95.4607 9.21906C95.4568 9.20111 95.4528 9.17519 95.4626 9.16322C95.4763 9.14328 95.5233 9.12534 95.5839 9.12534C95.672 9.12534 95.7424 9.16322 95.7483 9.19912C95.8657 9.79334 97.118 12.5272 98.611 15.0875C99.9572 17.3966 100.161 19.3388 100.096 20.5612C100.086 20.7107 99.8261 20.8224 99.4895 20.8224Z" fill="#132A3E"/>
<path d="M104.863 20.1544C104.567 20.1544 104.399 19.9111 104.399 19.4884C104.399 17.7336 103.17 15.5661 101.026 13.5402C99.6128 12.2061 98.3605 10.1204 98.204 9.6717C98.1981 9.6717 98.2274 9.65974 98.2744 9.65974C98.3507 9.65974 98.4035 9.68766 98.4133 9.69962C98.9788 10.6927 100.861 12.591 101.775 13.4564C103.665 15.2431 105.51 17.1813 105.51 19.4884C105.512 19.8812 105.17 20.1544 104.863 20.1544Z" fill="#132A3E"/>
<path d="M92.7037 19.5363C92.5432 19.5363 92.4454 19.4844 92.4141 19.3807C91.6705 16.8941 92.8993 12.4275 93.3631 10.7465C93.4277 10.5092 93.4785 10.3297 93.502 10.226C93.5216 10.1463 93.6253 10.1403 93.6566 10.1403C93.7309 10.1403 93.7818 10.1682 93.7896 10.1802C93.2437 13.2131 92.9267 15.614 93.7857 18.6948C93.8151 18.7985 93.7838 18.9141 93.6938 19.0357C93.4922 19.3049 93.0383 19.5363 92.7037 19.5363Z" fill="#132A3E"/>
<path d="M86.724 22.0049C86.5596 22.0049 86.0098 21.963 85.8552 21.4266C85.2545 19.3488 85.6204 17.8912 87.2464 15.8572C88.4557 14.3477 90.6843 11.1952 91.377 8.95185C91.3829 8.95185 91.4259 8.92992 91.4983 8.92992C91.5649 8.92992 91.6138 8.94986 91.6294 8.97179C91.6412 8.98575 91.6353 9.01367 91.6314 9.0356C91.0933 11.0735 89.6395 14.26 88.2502 16.4475C87.3717 17.8313 86.6966 19.1833 87.3149 21.7197C87.3208 21.7437 87.3227 21.7736 87.2914 21.8135C87.2229 21.9052 87.0136 22.0049 86.724 22.0049Z" fill="#132A3E"/>
</svg>
