<svg width="56" height="56" viewBox="0 0 56 56" fill="none" xmlns="http://www.w3.org/2000/svg">
<circle cx="28" cy="28" r="28" fill="#478641"/>
<path fill-rule="evenodd" clip-rule="evenodd" d="M29.2998 17.25C29.2998 16.5596 28.7402 16 28.0498 16C27.3594 16 26.7998 16.5596 26.7998 17.25V26.8H17.25C16.5596 26.8 16 27.3596 16 28.05C16 28.7403 16.5596 29.3 17.25 29.3H26.7998V38.75C26.7998 39.4404 27.3594 40 28.0498 40C28.7402 40 29.2998 39.4404 29.2998 38.75V29.3H38.75C39.4404 29.3 40 28.7403 40 28.05C40 27.3596 39.4404 26.8 38.75 26.8H29.2998V17.25Z" fill="white"/>
</svg>
