<svg width="13" height="12" viewBox="0 0 13 12" fill="none" xmlns="http://www.w3.org/2000/svg">
<path d="M5.48 4.2662C5.246 4.0322 5.246 3.6602 5.48 3.4262C5.714 3.1922 6.086 3.1922 6.32 3.4262L8.474 5.5862C8.708 5.8202 8.708 6.1982 8.474 6.4322L6.32 8.5862C6.086 8.8202 5.714 8.8202 5.48 8.5862C5.246 8.3522 5.246 7.9802 5.48 7.7462L6.62 6.6062H1.1C0.77 6.6062 0.5 6.3362 0.5 6.0062C0.5 5.6762 0.77 5.4062 1.1 5.4062H6.62L5.48 4.2662Z" fill="#666666"/>
<path d="M7.1 10.2062H11.3V1.8062H7.1C6.77 1.8062 6.5 1.5362 6.5 1.2062C6.5 0.876201 6.77 0.606201 7.1 0.606201H11.3C11.96 0.606201 12.5 1.1462 12.5 1.8062V10.2062C12.5 10.8662 11.96 11.4062 11.3 11.4062H7.1C6.77 11.4062 6.5 11.1362 6.5 10.8062C6.5 10.4762 6.77 10.2062 7.1 10.2062Z" fill="#666666"/>
</svg>
