<svg width="12" height="13" viewBox="0 0 12 13" fill="none" xmlns="http://www.w3.org/2000/svg">
<path fill-rule="evenodd" clip-rule="evenodd" d="M6.65024 0.776138C6.65024 0.43096 6.37042 0.151138 6.02524 0.151138C5.68007 0.151138 5.40024 0.43096 5.40024 0.776138V5.55114H0.625244C0.280066 5.55114 0.000244141 5.83096 0.000244141 6.17614C0.000244141 6.52132 0.280066 6.80114 0.625244 6.80114H5.40024V11.5261C5.40024 11.8713 5.68007 12.1511 6.02524 12.1511C6.37042 12.1511 6.65024 11.8713 6.65024 11.5261V6.80114H11.3752C11.7204 6.80114 12.0002 6.52132 12.0002 6.17614C12.0002 5.83096 11.7204 5.55114 11.3752 5.55114H6.65024V0.776138Z" fill="#666666"/>
</svg>
