<svg width="16" height="12" viewBox="0 0 16 12" fill="none" xmlns="http://www.w3.org/2000/svg">
<path d="M0 9.93189C0 10.4804 0.210714 11.0064 0.585786 11.3943C0.960859 11.7821 1.46957 12 2 12H14C14.5304 12 15.0391 11.7821 15.4142 11.3943C15.7893 11.0064 16 10.4804 16 9.93189V4.24461H0V9.93189ZM2.35714 7.12518C2.35714 6.83134 2.47003 6.54954 2.67096 6.34177C2.87189 6.13399 3.14441 6.01727 3.42857 6.01727H5.14286C5.42702 6.01727 5.69954 6.13399 5.90047 6.34177C6.1014 6.54954 6.21429 6.83134 6.21429 7.12518V7.86379C6.21429 8.15763 6.1014 8.43943 5.90047 8.6472C5.69954 8.85498 5.42702 8.9717 5.14286 8.9717H3.42857C3.14441 8.9717 2.87189 8.85498 2.67096 8.6472C2.47003 8.43943 2.35714 8.15763 2.35714 7.86379V7.12518Z" fill="#333333"/>
<path d="M14 0H2C1.46957 0 0.960859 0.217889 0.585786 0.605734C0.210714 0.993579 0 1.51961 0 2.0681V3.0283H16V2.0681C16 1.51961 15.7893 0.993579 15.4142 0.605734C15.0391 0.217889 14.5304 0 14 0Z" fill="#333333"/>
</svg>
